<?xml version="1.0" standalone="no"?>
<!DOCTYPE svg PUBLIC "-//W3C//DTD SVG 20010904//EN"
 "http://www.w3.org/TR/2001/REC-SVG-20010904/DTD/svg10.dtd">
<svg version="1.0" xmlns="http://www.w3.org/2000/svg"
 width="1029.000000pt" height="1121.000000pt" viewBox="0 0 1029.000000 1121.000000"
 preserveAspectRatio="xMidYMid meet">

<g transform="translate(0.000000,1121.000000) scale(0.100000,-0.100000)"
fill="#000000" stroke="none">
<path d="M0 10925 c0 -179 4 -285 10 -285 5 0 18 17 29 38 23 44 105 132 123
132 8 0 24 18 38 40 14 22 28 40 32 40 5 0 8 4 8 9 0 5 35 45 78 89 42 44 93
97 112 119 19 21 54 50 78 66 23 15 42 29 42 32 0 3 -124 5 -275 5 l-275 0 0
-285z"/>
<path d="M9860 11201 c0 -5 18 -24 40 -44 22 -19 40 -40 40 -45 0 -6 16 -19
35 -28 20 -9 42 -28 49 -43 8 -14 23 -35 35 -45 12 -11 21 -26 21 -35 0 -9 9
-22 20 -29 11 -7 20 -17 20 -23 0 -16 29 -41 39 -35 5 4 15 -10 21 -29 6 -19
16 -35 22 -35 13 0 45 -36 64 -72 8 -16 17 -28 19 -28 3 0 5 113 5 250 l0 250
-215 0 c-118 0 -215 -4 -215 -9z"/>
<path d="M5018 10933 l-3 -28 -140 0 -140 0 -111 -42 c-61 -24 -117 -43 -123
-43 -7 0 -35 -13 -64 -29 -29 -16 -71 -32 -94 -36 -23 -3 -53 -15 -67 -26 -13
-10 -32 -19 -43 -19 -19 0 -24 -3 -117 -57 -31 -18 -64 -33 -75 -33 -32 0
-100 -42 -141 -86 -21 -23 -49 -46 -61 -49 -13 -4 -55 -38 -93 -76 -39 -37
-89 -81 -112 -97 -60 -43 -182 -170 -215 -222 -15 -25 -43 -57 -62 -72 -23
-18 -41 -46 -56 -87 -12 -33 -37 -80 -55 -104 -50 -65 -83 -147 -122 -299 -43
-168 -52 -277 -44 -503 4 -99 2 -232 -4 -318 -9 -118 -9 -158 1 -195 14 -48
30 -292 20 -292 -3 0 -26 9 -50 19 -70 30 -107 33 -152 11 -22 -11 -51 -35
-63 -54 -26 -38 -29 -63 -36 -284 -3 -107 -1 -135 10 -139 8 -3 14 -14 14 -25
0 -10 -4 -16 -10 -13 -6 4 -10 -5 -10 -20 0 -15 4 -24 10 -20 9 5 15 -24 11
-48 -6 -31 -9 -98 -5 -82 10 36 20 36 22 0 2 -19 -2 -35 -8 -35 -5 0 -10 -12
-9 -27 0 -24 1 -25 8 -8 6 15 10 4 15 -40 8 -77 10 -83 29 -129 20 -45 20 -49
7 -41 -16 10 -11 -12 6 -30 11 -11 13 -20 7 -26 -12 -12 -39 25 -46 62 -3 17
-5 14 -6 -13 0 -20 13 -90 29 -155 28 -106 35 -121 68 -151 63 -57 108 -74
188 -73 l70 0 13 -77 c7 -42 17 -99 21 -127 5 -27 14 -86 20 -130 20 -138 69
-315 115 -412 47 -100 126 -212 216 -306 l56 -59 11 -91 c6 -51 25 -195 42
-322 16 -126 30 -247 30 -267 0 -38 -30 -107 -56 -129 -8 -6 -14 -18 -14 -27
0 -13 3 -12 20 3 11 10 26 15 35 11 14 -5 11 -11 -15 -37 -25 -25 -30 -37 -25
-59 4 -17 1 -31 -9 -39 -8 -7 -18 -26 -21 -42 -4 -16 -11 -31 -16 -34 -5 -4
-9 -11 -9 -16 0 -6 10 -3 22 5 12 9 25 16 28 16 22 0 -4 -195 -32 -240 -30
-47 160 -326 447 -658 52 -60 165 -168 165 -157 0 5 -8 17 -17 27 -22 25 -18
82 8 124 13 22 18 41 13 58 -6 25 -4 26 38 26 35 0 49 5 70 28 46 50 60 120
32 173 -13 27 -14 33 -1 47 17 20 28 70 16 74 -5 2 -12 18 -15 37 -7 32 -6 33
17 26 17 -4 20 -3 10 3 -15 11 -8 14 57 27 35 7 40 19 16 42 -18 18 -15 58 5
58 19 0 52 60 45 80 -4 8 -10 15 -14 15 -4 0 -11 25 -15 55 -6 54 -27 109 -46
120 -5 4 -9 17 -9 30 0 13 -11 36 -25 51 -14 15 -25 32 -25 38 0 7 -14 20 -31
30 -28 17 -30 21 -24 59 12 68 28 77 110 62 364 -65 519 -86 651 -87 80 -1
138 -7 153 -14 13 -7 29 -10 36 -8 7 3 16 1 20 -5 9 -15 21 -14 39 4 13 13 16
13 30 -1 9 -8 16 -29 16 -45 0 -25 4 -30 22 -27 29 4 34 24 7 31 -15 4 -20 11
-15 22 3 9 1 25 -4 35 -8 16 -6 22 10 32 11 7 20 17 20 23 0 10 74 45 95 45 6
0 21 12 34 25 13 14 28 25 33 25 5 0 33 20 61 43 59 50 76 58 132 64 22 2 42
9 43 14 2 5 15 9 28 9 15 0 24 6 24 15 0 22 28 18 40 -5 12 -22 8 -159 -5
-180 -4 -6 1 -20 10 -30 19 -20 13 -40 -12 -40 -11 0 -14 -8 -11 -31 6 -42
-24 -121 -51 -134 -22 -10 -28 -25 -11 -25 6 0 10 -4 10 -10 0 -5 -6 -10 -14
-10 -15 0 -24 -41 -27 -125 -3 -80 0 -95 16 -95 8 0 15 -4 15 -10 0 -5 9 -10
20 -10 17 0 20 -7 20 -49 0 -34 -4 -51 -15 -55 -8 -3 -15 -10 -15 -17 0 -6 7
-9 15 -5 8 3 15 1 15 -5 0 -5 -6 -12 -13 -15 -7 -2 -13 -13 -14 -24 -1 -15 15
-6 70 39 40 32 99 76 132 99 110 75 231 224 265 326 11 34 10 41 -7 65 -10 14
-41 37 -69 51 l-49 26 -3 70 c-2 38 1 115 7 169 6 55 13 129 15 165 11 164 20
240 27 240 5 0 9 10 9 23 0 12 11 64 25 116 26 99 22 128 -16 118 -12 -3 -19
3 -23 20 -4 13 -11 21 -16 18 -5 -3 -14 3 -20 14 -10 20 -11 20 -39 3 -16 -10
-50 -41 -77 -71 -26 -29 -58 -57 -71 -62 -16 -6 -23 -16 -23 -35 0 -15 -3 -25
-6 -21 -4 3 -14 -3 -23 -15 -10 -11 -35 -23 -57 -27 -33 -5 -42 -12 -59 -46
-22 -44 -34 -57 -47 -49 -5 3 -23 -8 -41 -25 -24 -25 -37 -30 -58 -26 -21 5
-33 -1 -55 -24 -16 -17 -37 -31 -47 -31 -11 0 -31 -8 -45 -19 -15 -10 -52 -29
-82 -42 -30 -12 -66 -30 -80 -39 -51 -32 -104 -44 -197 -42 -113 2 -147 13
-141 45 6 31 -27 31 -60 0 -28 -26 -43 -28 -60 -11 -7 7 -28 11 -47 9 -25 -2
-37 2 -41 13 -3 9 -11 13 -16 10 -19 -12 -125 -16 -108 -5 12 8 12 13 2 23 -7
7 -17 14 -22 14 -6 1 -14 2 -19 3 -5 0 -13 10 -16 21 -3 11 -13 20 -21 20 -8
0 -32 13 -52 29 -46 35 -119 64 -127 51 -4 -6 -6 -20 -5 -33 3 -37 1 -48 -10
-42 -5 3 -10 17 -10 31 0 29 -16 32 -25 4 -3 -11 1 -30 11 -44 15 -24 15 -26
0 -32 -11 -4 -27 4 -46 25 -17 17 -37 31 -45 31 -9 0 -18 7 -21 15 -4 9 -19
15 -35 15 -19 0 -29 5 -29 15 0 7 -20 31 -44 51 -25 20 -47 46 -50 57 -3 13
-10 18 -20 14 -17 -7 -52 35 -43 50 3 4 8 34 11 67 6 51 5 58 -10 52 -8 -3
-21 -6 -28 -6 -7 0 -17 -9 -22 -20 -8 -18 -11 -18 -41 -4 -17 9 -33 23 -36 32
-3 9 -14 29 -23 44 -22 34 -17 40 24 29 29 -9 31 -8 22 9 -5 10 -19 21 -29 25
-22 7 -65 59 -75 92 -4 13 -8 37 -8 53 -1 17 -5 33 -9 36 -5 3 -6 24 -3 48 4
27 2 46 -5 50 -6 4 -11 16 -11 26 0 25 -17 35 -36 19 -19 -15 -34 2 -34 39 0
29 -51 131 -66 132 -6 0 -11 6 -11 13 -3 36 -10 75 -18 87 -5 8 -8 31 -6 51 1
28 -4 43 -24 63 -14 14 -25 33 -25 43 0 10 -6 28 -14 39 -22 31 -23 56 -3 60
26 4 26 2 18 77 -7 70 -19 88 -51 80 -11 -3 -24 4 -34 19 -16 22 -16 23 11 28
25 5 28 10 28 45 0 33 3 39 18 37 21 -3 22 14 3 59 -7 19 -14 61 -14 94 -2
103 -11 135 -40 147 -15 6 -22 12 -15 15 17 6 -16 59 -47 75 -14 7 -27 13 -28
14 -2 2 -10 20 -17 41 -11 28 -14 32 -15 15 0 -13 -7 -30 -15 -38 -17 -18 -20
-50 -5 -59 13 -8 11 -198 -2 -206 -6 -4 -3 -19 7 -40 12 -23 14 -34 6 -37 -6
-2 -11 -15 -11 -28 0 -14 -4 -22 -10 -19 -5 3 -10 33 -10 66 0 32 -4 59 -9 59
-13 0 -55 72 -52 88 1 8 -3 20 -10 28 -14 17 -3 67 14 61 7 -2 11 -18 9 -36
-3 -39 3 -39 23 -1 20 38 11 137 -17 193 -20 41 -38 49 -38 17 0 -11 -7 -23
-15 -26 -8 -4 -15 -17 -15 -30 0 -13 -5 -24 -11 -24 -7 0 -9 9 -5 23 3 12 6
34 6 49 0 18 7 29 20 33 11 3 20 14 20 24 0 10 7 35 15 54 8 20 15 53 15 72 0
20 3 34 8 31 4 -2 6 34 4 80 -3 74 -1 84 14 84 10 0 25 6 33 13 17 15 88 37
116 37 15 0 15 -3 -6 -21 -19 -17 -21 -22 -9 -29 11 -7 16 -4 18 11 3 14 9 18
21 14 24 -7 43 18 39 52 -2 23 0 27 17 25 11 -2 22 -8 23 -13 6 -14 22 -11 22
5 0 19 37 27 50 11 6 -8 23 -12 38 -10 15 1 32 -1 37 -5 30 -21 197 -50 293
-50 59 0 79 -4 100 -20 17 -14 29 -17 35 -11 7 7 14 3 22 -12 6 -12 18 -21 25
-19 7 2 44 5 82 7 63 5 71 3 94 -20 17 -17 25 -35 23 -53 -3 -43 23 -121 43
-127 30 -10 32 -43 4 -80 -14 -18 -26 -38 -26 -42 0 -5 -20 -31 -45 -58 -29
-32 -51 -68 -60 -100 -8 -27 -22 -64 -32 -81 -10 -20 -13 -38 -8 -50 4 -11 7
-47 6 -81 -3 -67 6 -92 52 -140 24 -26 27 -33 14 -33 -18 0 -18 2 14 -61 6
-12 9 -22 7 -23 -10 -8 -72 -36 -80 -36 -4 0 -6 11 -2 25 8 33 -1 56 -21 49
-16 -7 -21 -30 -6 -36 4 -1 11 -20 15 -40 6 -31 4 -38 -9 -38 -8 0 -15 8 -15
18 0 23 -19 42 -42 42 -10 0 -18 5 -18 11 0 7 -11 9 -27 6 -34 -6 -53 1 -53
20 0 8 -5 11 -10 8 -6 -4 -10 -12 -9 -18 3 -26 -2 -35 -18 -33 -13 1 -19 -8
-21 -29 -2 -16 -13 -39 -25 -50 -12 -12 -27 -30 -33 -41 -13 -22 -27 -14 -29
19 -1 15 -7 21 -20 19 -22 -4 -85 -70 -85 -88 0 -7 -5 -14 -10 -16 -19 -6 -23
-162 -6 -202 18 -43 26 -44 57 -11 13 13 27 25 31 25 4 0 11 -18 14 -41 7 -43
26 -69 50 -69 8 0 14 -5 14 -11 0 -6 8 -8 19 -4 15 5 20 -1 25 -30 4 -21 14
-38 24 -41 33 -10 47 -21 47 -37 0 -8 13 -34 28 -57 15 -23 27 -45 27 -50 0
-10 56 -21 74 -14 7 3 16 -2 20 -11 3 -9 14 -15 23 -13 10 1 32 -2 48 -9 69
-26 143 -42 187 -42 31 1 53 -5 64 -15 8 -9 20 -14 25 -11 4 3 19 0 31 -8 19
-11 45 -12 136 -5 88 7 123 6 160 -6 58 -17 197 -11 256 10 77 28 109 36 138
32 15 -3 28 -1 28 2 0 4 17 15 38 24 20 9 69 46 107 81 65 60 70 66 69 105
l-1 41 42 -7 c34 -5 45 -2 56 13 21 27 45 44 82 57 36 12 47 31 19 31 -10 0
-18 9 -20 23 -2 12 -8 22 -14 22 -5 0 -21 9 -35 19 -25 20 -57 28 -228 56 -55
9 -114 21 -131 26 -17 5 -40 9 -52 9 -12 0 -45 9 -74 21 -62 24 -138 23 -263
-5 -72 -17 -82 -17 -110 -3 -16 9 -41 19 -55 22 -14 4 -43 15 -65 25 -22 10
-67 19 -100 19 -79 3 -132 8 -143 15 -5 3 -18 -1 -28 -9 -10 -8 -29 -15 -41
-15 -12 0 -46 -6 -76 -14 -29 -8 -65 -12 -79 -9 -28 5 -56 49 -35 56 6 2 11
15 9 30 -2 26 33 97 48 97 4 0 11 -7 14 -16 5 -12 10 -14 20 -5 10 8 15 5 24
-14 15 -32 35 -32 57 2 17 25 19 26 25 8 6 -17 8 -15 14 13 8 32 19 41 31 23
8 -15 121 -7 142 10 10 7 32 29 50 48 l31 34 26 -21 c15 -11 44 -23 66 -27 25
-4 40 -12 40 -21 0 -16 26 -19 35 -5 3 6 20 1 40 -10 50 -30 92 -19 101 26 4
22 13 35 26 38 11 3 17 10 14 15 -3 5 6 10 20 10 15 0 30 5 34 11 4 7 23 14
43 16 35 3 36 1 52 -44 14 -43 14 -47 -2 -58 -10 -8 -12 -13 -4 -13 20 0 41
-26 41 -51 l0 -23 20 22 c12 12 27 22 35 22 8 0 15 9 15 20 0 11 3 19 8 18 17
-5 52 25 68 57 9 20 26 38 39 41 39 10 64 56 73 136 5 40 6 83 1 95 -5 13 -11
53 -15 90 -6 56 -12 74 -38 104 -17 20 -38 44 -47 55 -8 10 -34 36 -57 56 -22
20 -49 52 -58 70 -9 18 -23 40 -31 49 -20 23 -19 45 1 111 12 36 27 63 42 73
13 8 24 22 24 29 0 8 6 16 14 19 21 8 86 -4 86 -15 0 -5 4 -7 8 -4 12 7 148
-31 198 -55 30 -15 61 -21 115 -21 164 0 179 1 179 17 0 20 37 34 89 33 29 0
49 7 71 26 36 30 47 32 69 12 20 -17 109 -37 117 -25 3 5 0 17 -6 28 -19 36
-12 48 33 57 23 4 51 8 62 9 11 0 21 8 23 18 2 10 16 23 30 28 l27 11 -24 19
c-13 10 -29 19 -37 19 -8 0 -14 5 -14 10 0 6 6 10 14 10 7 0 19 6 25 14 10 12
4 17 -35 28 -38 11 -49 19 -55 40 -6 24 -5 26 15 18 21 -8 30 -7 109 5 l38 6
-7 45 c-5 37 -4 44 10 44 9 0 19 -7 22 -15 9 -22 31 -18 37 6 5 20 7 21 23 5
9 -10 22 -45 29 -79 7 -34 25 -106 39 -160 15 -54 31 -120 36 -145 5 -26 19
-92 30 -147 18 -83 21 -122 17 -236 -3 -74 -2 -141 3 -148 10 -18 30 -5 30 20
0 10 4 19 9 19 5 0 11 14 15 31 4 22 10 30 21 25 9 -3 15 0 15 9 0 8 6 18 13
22 17 10 53 121 49 152 -2 13 4 28 14 36 10 7 15 19 11 28 -4 11 1 18 14 22
27 9 35 -1 16 -20 -16 -16 -11 -52 15 -99 27 -50 40 -126 41 -250 2 -127 1
-132 -26 -178 -16 -27 -33 -48 -38 -48 -21 0 -7 -19 22 -29 18 -6 33 -11 34
-11 1 0 12 23 25 50 16 34 26 46 32 38 5 -9 8 -7 8 7 0 15 2 17 9 6 10 -15 15
-8 25 32 6 27 -7 38 -18 15 -8 -18 3 105 16 182 6 36 15 71 21 78 18 22 48
122 41 134 -4 7 -3 8 4 4 7 -4 12 -1 12 9 0 9 -4 13 -10 10 -5 -3 -10 1 -10 9
0 32 -18 15 -28 -26 -26 -112 -32 -140 -32 -164 0 -40 -24 -23 -32 22 -4 21
-7 84 -7 140 -1 86 2 103 17 118 18 15 20 15 34 -1 8 -10 18 -25 21 -33 4 -10
6 -11 6 -2 1 10 5 9 17 -3 14 -13 19 -14 25 -3 7 10 9 10 9 -2 0 -35 18 9 23
55 5 67 -10 151 -36 198 -40 72 -134 107 -210 78 -40 -15 -64 -14 -71 5 -3 8
1 52 9 97 8 45 19 111 25 147 6 36 16 76 21 90 9 27 18 287 19 615 1 227 -23
437 -59 515 -11 25 -21 57 -21 71 0 14 -10 41 -23 60 -12 19 -30 50 -40 69 -9
19 -25 48 -36 65 -15 22 -17 31 -8 37 8 5 9 12 2 21 -41 58 -105 140 -139 178
-50 56 -86 101 -127 153 -17 23 -61 57 -104 82 -122 70 -191 119 -306 220 -75
66 -132 102 -253 159 -62 29 -140 74 -174 99 -33 26 -86 58 -117 71 -44 20
-59 33 -71 60 -17 41 -19 41 -62 15 -38 -23 -72 -25 -110 -6 -15 7 -53 17 -86
21 -32 4 -76 13 -96 20 -21 8 -48 11 -59 8 -16 -4 -22 1 -28 28 -11 42 -31 49
-35 12z m-73 -939 c6 -9 25 -17 41 -18 17 -2 36 -6 42 -10 7 -4 16 -5 21 -2 5
4 21 -8 36 -26 28 -33 34 -35 168 -44 l78 -6 51 -61 c28 -34 57 -61 65 -59 7
2 13 -6 13 -18 0 -11 6 -23 14 -26 8 -3 16 -14 19 -25 3 -10 17 -23 31 -29 15
-5 29 -17 32 -25 4 -9 18 -15 35 -15 17 0 28 -5 27 -12 -2 -7 18 -23 45 -36
51 -26 78 -59 57 -72 -9 -6 -8 -15 4 -39 9 -17 14 -31 10 -31 -4 0 -2 -6 4
-13 14 -17 -1 -73 -18 -69 -9 2 -11 -6 -5 -30 4 -18 13 -62 19 -98 10 -58 13
-65 34 -65 19 0 27 -9 38 -40 7 -22 14 -48 14 -57 0 -16 16 -23 46 -19 7 1 12
-9 12 -21 2 -71 4 -80 23 -75 10 3 30 -3 43 -14 13 -10 31 -19 39 -19 20 0 33
-18 49 -68 12 -39 15 -42 48 -42 29 0 39 -6 54 -31 26 -44 16 -59 -43 -59 -30
0 -51 5 -54 13 -4 9 -7 9 -14 -1 -8 -10 -22 -10 -74 2 -35 8 -86 15 -112 15
-26 0 -52 3 -57 6 -34 21 -375 22 -407 2 -7 -5 -13 -18 -13 -31 0 -12 -13 -35
-30 -51 -16 -16 -30 -36 -30 -44 0 -9 -9 -27 -20 -41 -11 -14 -20 -32 -20 -41
0 -25 -28 -45 -42 -31 -23 23 -37 6 -44 -53 -6 -46 -12 -55 -35 -55 -31 0 -18
-21 27 -45 49 -26 49 -56 -2 -100 -18 -16 -34 -35 -34 -41 0 -7 -7 -14 -15
-18 -8 -3 -15 -16 -15 -30 0 -14 -5 -28 -10 -31 -6 -4 -8 -15 -5 -25 3 -10 7
-70 9 -133 2 -107 1 -114 -18 -123 -26 -11 -33 -56 -12 -77 9 -9 16 -33 16
-54 0 -42 38 -111 93 -170 17 -18 32 -39 33 -48 1 -9 13 -27 26 -39 33 -34 88
-111 88 -124 0 -8 21 -12 59 -12 55 0 61 -2 91 -36 25 -29 30 -42 25 -63 -3
-14 -6 -34 -6 -43 0 -20 -34 -25 -45 -7 -3 6 -22 9 -43 7 -45 -6 -102 8 -118
29 -27 35 -61 24 -159 -53 -91 -71 -98 -74 -148 -74 -35 0 -58 5 -66 15 -7 8
-19 15 -26 15 -8 0 -14 4 -14 9 0 5 -33 35 -72 67 -40 33 -75 62 -78 65 -9 12
-55 12 -85 0 -38 -16 -152 -12 -187 6 -27 13 -39 43 -18 43 6 0 10 6 10 13 0
7 21 34 46 61 33 33 50 44 57 37 20 -20 36 -12 62 29 14 22 32 40 40 40 8 0
21 13 29 29 9 16 28 42 44 57 30 30 62 109 62 153 0 14 7 49 16 76 29 92 38
163 35 255 -1 30 3 73 10 96 11 35 10 47 -7 87 -10 26 -22 47 -26 47 -5 0 -8
23 -8 50 0 37 4 50 14 50 8 0 16 8 19 18 4 19 -19 72 -32 72 -5 0 -14 14 -20
30 -5 17 -15 30 -21 30 -6 0 -15 11 -20 25 -6 16 -17 25 -30 25 -14 0 -19 4
-14 12 5 8 2 9 -10 5 -26 -10 -52 58 -38 97 10 24 8 33 -11 57 -12 16 -31 28
-42 27 -11 0 -33 4 -48 10 -16 7 -31 12 -35 12 -4 0 -25 14 -46 32 -32 27 -45
31 -88 29 -28 -1 -57 4 -65 11 -11 9 -16 9 -23 -1 -6 -11 -18 -10 -64 3 -31 9
-67 14 -82 10 -28 -7 -164 12 -205 29 -18 7 -25 16 -21 29 5 19 -22 26 -33 8
-3 -5 -16 -10 -28 -9 -12 0 -16 3 -9 6 6 2 12 10 12 17 0 7 9 21 19 30 11 10
21 28 23 40 2 15 10 21 28 22 87 2 140 24 137 58 0 5 9 18 20 30 11 12 22 29
26 39 3 9 16 17 27 17 25 0 90 49 90 68 0 7 13 12 30 12 34 0 38 10 11 27 -19
12 -51 66 -51 86 0 19 32 46 48 40 12 -5 14 -2 7 13 -5 10 -10 58 -12 106 -3
80 -2 88 19 102 12 9 28 16 35 16 7 0 39 20 70 44 37 29 74 48 103 53 25 5 45
13 46 18 3 30 17 44 34 35 24 -13 90 -13 90 0 0 5 16 12 36 16 19 4 38 13 41
21 3 8 12 12 20 9 8 -3 18 4 25 19 6 14 20 25 31 25 10 0 21 9 24 20 5 20 36
35 52 25 6 -3 15 4 21 15 13 24 19 25 35 4z m-773 -1462 c7 -7 -1 -14 -28 -21
-49 -14 -70 -14 -95 -1 -30 16 -23 28 19 32 58 5 92 2 104 -10z m2389 -158 c5
-15 6 -36 3 -48 -7 -21 -7 -21 -15 -1 -9 23 -12 75 -4 75 3 0 10 -12 16 -26z
m-2441 -6 c0 -13 -23 -5 -28 10 -2 7 2 10 12 6 9 -3 16 -11 16 -16z m2000 12
c0 -5 -4 -10 -10 -10 -5 0 -10 5 -10 10 0 6 5 10 10 10 6 0 10 -4 10 -10z
m109 -1 c33 -12 38 -22 19 -43 -9 -10 -19 -7 -50 13 -33 22 -36 26 -21 32 10
4 18 8 19 8 1 1 15 -4 33 -10z m-2115 -61 c-3 -5 -12 -4 -20 3 -7 6 -11 15 -8
21 3 5 12 4 20 -3 7 -6 11 -15 8 -21z m211 -39 c4 -15 13 -30 21 -33 30 -11
12 -22 -33 -19 -27 1 -54 2 -60 2 -22 1 -14 36 20 88 12 19 45 -5 52 -38z
m2084 -5 c3 -2 -1 -10 -7 -16 -14 -14 -43 -1 -50 22 -4 10 3 11 24 6 16 -4 31
-10 33 -12z m-584 -34 c3 -5 1 -10 -4 -10 -6 0 -11 5 -11 10 0 6 2 10 4 10 3
0 8 -4 11 -10z m-2441 -44 c8 3 18 -12 26 -36 18 -53 5 -76 -40 -73 -39 2 -53
19 -37 47 13 24 14 28 16 58 1 16 4 19 12 11 6 -6 17 -9 23 -7z m2434 -5 c3
-8 -1 -12 -9 -9 -7 2 -15 10 -17 17 -3 8 1 12 9 9 7 -2 15 -10 17 -17z m-165
-34 c5 -21 7 -40 4 -43 -9 -10 -70 12 -81 28 -8 13 -6 22 9 38 29 32 58 22 68
-23z m-133 13 c0 -5 -2 -10 -4 -10 -3 0 -8 5 -11 10 -3 6 -1 10 4 10 6 0 11
-4 11 -10z m-2140 -114 c0 -3 -4 -8 -10 -11 -5 -3 -10 -1 -10 4 0 6 5 11 10
11 6 0 10 -2 10 -4z m2467 -248 c-3 -8 -6 -5 -6 6 -1 11 2 17 5 13 3 -3 4 -12
1 -19z m1023 -44 c-16 -30 -50 -39 -50 -13 0 11 5 16 13 13 10 -4 12 3 9 27
-4 27 -2 31 12 26 9 -4 17 -1 17 6 1 7 4 1 6 -12 3 -13 -1 -34 -7 -47z m-1690
35 c0 -5 -4 -9 -10 -9 -5 0 -10 7 -10 16 0 8 5 12 10 9 6 -3 10 -10 10 -16z
m-2313 -51 c-3 -8 -6 -5 -6 6 -1 11 2 17 5 13 3 -3 4 -12 1 -19z m139 -11 c11
4 14 -4 14 -34 0 -21 5 -44 10 -49 20 -20 23 -94 5 -140 -9 -24 -20 -43 -23
-43 -24 4 -33 -3 -28 -19 4 -11 -2 -27 -15 -41 l-22 -23 -20 20 c-51 52 -18
290 47 334 6 4 12 3 14 -2 2 -5 10 -6 18 -3z m361 -339 c-3 -8 -6 -5 -6 6 -1
11 2 17 5 13 3 -3 4 -12 1 -19z m-318 -114 c25 -31 27 -67 6 -84 -15 -13 -22
-90 -7 -90 12 0 44 -124 37 -143 -8 -20 -14 -21 -50 -7 -53 20 -109 101 -57
83 12 -4 10 0 -5 11 -14 10 -19 23 -16 36 4 14 1 20 -7 18 -7 -2 -15 3 -18 11
-3 10 0 12 12 8 10 -4 14 -3 11 2 -3 6 2 14 12 20 14 7 18 23 18 76 0 47 4 68
15 75 22 14 26 13 49 -16z m541 -208 c0 -3 -4 -8 -10 -11 -5 -3 -10 -1 -10 4
0 6 5 11 10 11 6 0 10 -2 10 -4z m-70 -58 c0 -30 -1 -31 -17 -16 -13 14 -14
20 -3 32 18 22 20 20 20 -16z m-77 -43 c-3 -9 -8 -14 -10 -11 -3 3 -2 9 2 15
9 16 15 13 8 -4z m133 -122 c-11 -11 -19 6 -11 24 8 17 8 17 12 0 3 -10 2 -21
-1 -24z m452 -225 c-4 -27 -23 -34 -32 -13 -8 21 1 35 20 35 10 0 14 -8 12
-22z m-422 -242 c3 -10 1 -23 -5 -29 -8 -8 -11 -6 -11 7 0 10 -11 27 -25 38
-14 11 -23 24 -19 29 7 12 52 -21 60 -45z m1047 2 c29 -40 39 -66 27 -73 -5
-3 -11 4 -15 15 -4 11 -17 28 -31 36 -23 16 -34 54 -15 54 6 0 21 -15 34 -32z
m223 -24 c30 -23 38 -25 60 -15 14 6 34 11 46 11 12 0 30 8 40 17 17 15 21 15
54 0 19 -9 41 -17 48 -17 8 0 19 -7 27 -16 11 -13 8 -19 -19 -41 -20 -15 -32
-33 -32 -49 0 -13 -4 -24 -10 -24 -5 0 -10 8 -10 18 0 20 -39 25 -52 7 -5 -7
-11 -6 -15 1 -13 19 -51 22 -72 7 -12 -8 -21 -10 -21 -4 0 6 -9 11 -20 11 -29
0 -89 33 -91 50 -4 38 6 70 21 70 6 0 27 -12 46 -26z m-108 -23 c3 -9 10 -19
16 -23 6 -4 6 -11 -2 -21 -10 -11 -8 -20 9 -41 11 -14 27 -26 35 -26 8 0 14
-4 14 -10 0 -14 -13 -13 -69 6 -43 14 -47 18 -43 41 3 17 -1 29 -12 35 -19 11
-21 34 -4 52 15 16 48 9 56 -13z m-1097 -84 c-13 -13 -26 -3 -16 12 3 6 11 8
17 5 6 -4 6 -10 -1 -17z m2269 -1357 c0 -5 -4 -10 -10 -10 -5 0 -10 5 -10 10
0 6 5 10 10 10 6 0 10 -4 10 -10z m364 -62 c26 -37 19 -38 -39 -6 -38 20 -55
36 -55 49 0 19 1 19 39 -1 22 -11 47 -30 55 -42z m-43 -28 c10 -6 19 -15 19
-21 0 -5 -13 -3 -30 6 -16 9 -30 18 -30 20 0 8 20 6 41 -5z m19 -60 c13 -8 13
-10 -2 -10 -9 0 -20 5 -23 10 -8 13 5 13 25 0z m-320 -55 c0 -8 -4 -15 -10
-15 -5 0 -10 7 -10 15 0 8 5 15 10 15 6 0 10 -7 10 -15z m-60 -112 c0 -5 -5
-15 -10 -23 -9 -13 -11 -13 -19 0 -5 8 -7 18 -5 22 6 10 34 11 34 1z m63 0 c3
-5 -1 -14 -9 -21 -12 -11 -14 -9 -14 8 0 20 14 27 23 13z m22 -63 c0 -8 -8
-14 -17 -14 -13 1 -18 -5 -18 -22 0 -12 -4 -26 -10 -29 -5 -3 -10 -17 -10 -31
0 -13 -4 -24 -9 -24 -5 0 -5 16 0 40 5 22 8 43 7 47 -1 5 1 18 5 29 9 25 52
28 52 4z"/>
<path d="M4508 9773 c7 -3 16 -2 19 1 4 3 -2 6 -13 5 -11 0 -14 -3 -6 -6z"/>
<path d="M4266 9415 c-3 -8 -1 -17 3 -20 5 -3 11 2 15 10 3 8 1 17 -3 20 -5 3
-11 -2 -15 -10z"/>
<path d="M4660 9380 c0 -5 5 -10 10 -10 6 0 10 5 10 10 0 6 -4 10 -10 10 -5 0
-10 -4 -10 -10z"/>
<path d="M4790 7580 c0 -5 5 -10 10 -10 6 0 10 5 10 10 0 6 -4 10 -10 10 -5 0
-10 -4 -10 -10z"/>
<path d="M6850 7786 c0 -9 5 -16 10 -16 6 0 10 4 10 9 0 6 -4 13 -10 16 -5 3
-10 -1 -10 -9z"/>
<path d="M4740 6270 c0 -19 3 -21 12 -12 9 9 9 15 0 24 -9 9 -12 7 -12 -12z"/>
<path d="M3434 7846 c-15 -31 6 -61 35 -51 24 7 27 32 7 58 -18 23 -29 21 -42
-7z"/>
<path d="M7192 7610 c0 -19 2 -27 5 -17 2 9 2 25 0 35 -3 9 -5 1 -5 -18z"/>
<path d="M3547 7563 c-11 -10 -8 -61 4 -68 5 -4 14 -18 19 -31 5 -13 15 -24
22 -24 10 0 10 2 1 8 -7 5 -9 20 -4 49 5 22 4 48 -1 57 -9 16 -30 21 -41 9z"/>
<path d="M6920 7340 c0 -32 -13 -48 -86 -107 -43 -34 -68 -31 -84 10 -8 22 -8
22 -18 -4 -6 -15 -14 -44 -18 -65 -3 -22 -10 -43 -14 -49 -5 -5 -11 -41 -15
-80 -5 -62 -4 -68 8 -52 12 14 25 17 56 13 35 -4 56 6 34 16 -5 2 -16 18 -25
36 -17 32 -17 34 7 83 14 27 32 49 41 49 26 0 54 -20 73 -50 l17 -29 22 88
c23 93 29 171 12 171 -5 0 -10 -14 -10 -30z"/>
<path d="M2831 7334 c0 -11 3 -14 6 -6 3 7 2 16 -1 19 -3 4 -6 -2 -5 -13z"/>
<path d="M3610 7340 c0 -5 5 -10 10 -10 6 0 10 5 10 10 0 6 -4 10 -10 10 -5 0
-10 -4 -10 -10z"/>
<path d="M5623 7257 c-17 -27 22 -101 70 -136 11 -7 24 -26 31 -41 6 -16 26
-46 44 -67 17 -21 52 -63 78 -93 25 -30 53 -64 63 -75 34 -40 54 -79 86 -171
17 -51 35 -91 39 -87 14 14 5 99 -19 169 -14 41 -25 80 -25 87 0 7 -15 29 -32
49 -59 64 -98 117 -98 131 0 8 -9 22 -20 32 -11 10 -20 25 -20 33 0 8 -15 32
-32 53 -18 21 -45 54 -60 72 -30 37 -93 63 -105 44z"/>
<path d="M4046 7113 c-13 -14 -5 -33 14 -33 11 0 20 6 20 14 0 15 -24 28 -34
19z"/>
<path d="M7055 7100 c-3 -5 -1 -10 4 -10 6 0 11 5 11 10 0 6 -2 10 -4 10 -3 0
-8 -4 -11 -10z"/>
<path d="M6902 7017 c11 -51 25 -68 33 -41 4 10 11 30 16 43 7 16 6 28 -1 35
-7 7 -10 5 -10 -7 0 -9 -4 -17 -10 -17 -5 0 -10 4 -10 9 0 5 -6 11 -14 14 -11
4 -12 -2 -4 -36z"/>
<path d="M6410 6985 c0 -8 5 -15 10 -15 6 0 10 7 10 15 0 8 -4 15 -10 15 -5 0
-10 -7 -10 -15z"/>
<path d="M6425 6951 c-3 -5 -1 -12 5 -16 5 -3 10 1 10 9 0 18 -6 21 -15 7z"/>
<path d="M5137 6944 c-9 -10 2 -24 18 -24 9 0 12 6 9 15 -6 16 -17 19 -27 9z"/>
<path d="M6500 6934 c0 -8 5 -12 10 -9 6 4 8 11 5 16 -9 14 -15 11 -15 -7z"/>
<path d="M5522 6825 c0 -16 2 -22 5 -12 2 9 2 23 0 30 -3 6 -5 -1 -5 -18z"/>
<path d="M5240 6820 c0 -5 5 -10 10 -10 6 0 10 5 10 10 0 6 -4 10 -10 10 -5 0
-10 -4 -10 -10z"/>
<path d="M5640 6823 c0 -10 48 -32 54 -25 3 3 -6 11 -20 19 -30 15 -34 16 -34
6z"/>
<path d="M6641 6813 c-13 -25 9 -49 60 -63 46 -13 54 -13 40 4 -7 8 -21 12
-31 9 -12 -3 -22 1 -26 11 -3 9 -11 13 -17 9 -6 -4 -8 0 -5 9 4 8 3 21 -2 28
-6 10 -10 8 -19 -7z"/>
<path d="M3718 6603 c-5 -24 1 -53 12 -53 17 0 22 42 7 57 -12 13 -15 12 -19
-4z"/>
<path d="M4330 5998 c0 -52 7 -64 43 -70 22 -4 27 -2 27 14 0 10 -7 30 -16 43
-9 14 -13 25 -8 25 10 0 -28 29 -38 30 -5 0 -8 -19 -8 -42z"/>
<path d="M5893 5090 c0 -25 2 -35 4 -22 2 12 2 32 0 45 -2 12 -4 2 -4 -23z"/>
<path d="M5912 5060 c0 -14 2 -19 5 -12 2 6 2 18 0 25 -3 6 -5 1 -5 -13z"/>
<path d="M6267 4942 c47 -25 92 -69 97 -94 3 -13 7 -32 9 -43 3 -11 5 -1 6 21
1 50 -24 86 -80 114 -47 24 -77 26 -32 2z"/>
<path d="M5860 4855 c0 -8 7 -15 15 -15 8 0 15 7 15 15 0 8 -7 15 -15 15 -8 0
-15 -7 -15 -15z"/>
<path d="M5303 4803 c-13 -8 -23 -24 -23 -35 0 -17 2 -18 15 -8 9 7 39 19 68
25 52 12 52 13 24 24 -37 15 -57 13 -84 -6z"/>
<path d="M3484 4715 c0 -49 1 -71 3 -48 2 23 2 64 0 90 -2 26 -3 8 -3 -42z"/>
<path d="M5240 4779 c0 -5 5 -7 10 -4 6 3 10 8 10 11 0 2 -4 4 -10 4 -5 0 -10
-5 -10 -11z"/>
<path d="M3436 4586 c19 -137 170 -437 369 -734 69 -102 333 -408 319 -369 -3
9 -10 17 -14 17 -5 0 -30 28 -56 63 -27 34 -75 94 -109 132 -194 225 -424 633
-504 895 l-11 35 6 -39z"/>
<path d="M3496 4580 c15 -113 195 -463 363 -700 59 -84 274 -352 297 -371 19
-15 -47 73 -151 201 -95 117 -215 293 -297 435 -119 206 -163 300 -207 445
-10 34 -10 34 -5 -10z"/>
<path d="M5750 4545 c-10 -13 -9 -15 9 -15 11 0 21 4 21 9 0 18 -18 21 -30 6z"/>
<path d="M3425 4430 c14 -53 149 -317 211 -412 13 -21 24 -40 24 -43 0 -14
135 -207 185 -266 30 -35 79 -93 109 -129 29 -36 68 -78 86 -95 28 -25 -61 86
-183 230 -99 116 -265 388 -379 620 -33 66 -56 109 -53 95z"/>
<path d="M5706 4431 c-4 -7 -5 -15 -2 -18 9 -9 19 4 14 18 -4 11 -6 11 -12 0z"/>
<path d="M5671 4345 c-37 -13 -55 -43 -40 -66 8 -12 12 -11 24 5 8 11 15 25
15 32 0 7 15 14 33 16 17 2 31 8 30 13 -3 14 -23 15 -62 0z"/>
<path d="M3650 4334 c0 -6 7 -19 16 -30 14 -18 14 -18 3 6 -14 31 -19 36 -19
24z"/>
<path d="M5813 4303 c-23 -26 -43 -24 -43 5 0 12 -4 10 -14 -8 -8 -16 -9 -29
-3 -37 10 -14 37 -18 37 -5 0 4 14 16 30 25 17 10 30 25 30 33 0 20 -12 16
-37 -13z"/>
<path d="M3298 4284 c-15 -22 -41 -75 -58 -119 l-32 -80 5 -275 c4 -237 7
-283 24 -332 26 -76 106 -207 169 -276 l51 -57 47 13 c50 13 66 10 66 -14 0
-8 10 -14 26 -14 36 0 28 28 -16 51 -71 37 -228 242 -277 362 -23 55 -27 83
-35 260 -11 220 2 352 43 447 28 64 20 82 -13 34z"/>
<path d="M5680 4306 c0 -9 7 -12 20 -9 11 3 20 9 20 14 0 5 -9 9 -20 9 -11 0
-20 -6 -20 -14z"/>
<path d="M3420 4305 c0 -19 156 -295 167 -295 2 0 -6 19 -20 43 -13 23 -50 90
-82 150 -51 96 -65 118 -65 102z"/>
<path d="M3696 4247 c3 -10 9 -15 12 -12 3 3 0 11 -7 18 -10 9 -11 8 -5 -6z"/>
<path d="M6704 4224 c13 -88 -51 -263 -150 -410 -93 -139 -459 -525 -627 -662
-105 -86 -297 -222 -313 -222 -21 0 -16 -13 10 -32 34 -25 97 -16 158 23 168
108 363 279 542 475 245 269 312 353 378 479 76 147 101 294 56 335 -67 61
-61 59 -54 14z"/>
<path d="M3421 4210 c14 -31 19 -36 19 -24 0 6 -7 19 -16 30 -14 18 -14 18 -3
-6z"/>
<path d="M3739 4172 c6 -12 16 -24 22 -28 8 -4 8 -1 0 14 -6 12 -16 24 -22 28
-8 4 -8 1 0 -14z"/>
<path d="M3455 4136 c8 -19 28 -58 45 -86 16 -28 30 -53 30 -56 0 -10 96 -171
141 -237 59 -86 195 -250 250 -302 23 -22 36 -30 28 -18 -12 18 -110 131 -144
167 -69 72 -212 289 -285 430 -56 111 -70 136 -75 136 -2 0 2 -15 10 -34z"/>
<path d="M5590 4139 c0 -5 5 -7 10 -4 6 3 10 8 10 11 0 2 -4 4 -10 4 -5 0 -10
-5 -10 -11z"/>
<path d="M3776 4117 c3 -10 9 -15 12 -12 3 3 0 11 -7 18 -10 9 -11 8 -5 -6z"/>
<path d="M5545 4110 c4 -6 11 -8 16 -5 14 9 11 15 -7 15 -8 0 -12 -5 -9 -10z"/>
<path d="M5468 4065 c3 -19 8 -23 15 -16 8 8 7 16 -5 27 -14 14 -15 14 -10
-11z"/>
<path d="M5496 4083 c5 -5 12 -12 15 -16 3 -5 9 -2 12 7 5 12 0 16 -15 16 -12
0 -17 -3 -12 -7z"/>
<path d="M3815 4050 c21 -36 77 -119 112 -166 133 -178 217 -285 253 -324 l42
-45 -39 50 c-74 94 -218 287 -291 388 -72 100 -94 127 -77 97z"/>
<path d="M3475 4000 c11 -37 110 -213 166 -296 57 -85 258 -318 267 -310 3 4
-6 19 -20 34 -165 179 -291 352 -373 512 -43 84 -51 96 -40 60z"/>
<path d="M5373 3984 c-18 -16 -21 -22 -8 -15 32 15 61 40 48 41 -7 0 -25 -12
-40 -26z"/>
<path d="M6980 3990 c0 -6 7 -10 15 -10 8 0 15 2 15 4 0 2 -7 6 -15 10 -8 3
-15 1 -15 -4z"/>
<path d="M3600 3983 c0 -23 107 -192 179 -283 72 -90 193 -225 219 -245 17
-12 11 -1 -18 31 -166 186 -275 330 -351 459 -16 28 -29 45 -29 38z"/>
<path d="M3455 3930 c11 -41 133 -250 190 -325 61 -82 215 -248 223 -241 3 3
-24 36 -59 74 -141 149 -223 261 -305 417 -52 100 -60 111 -49 75z"/>
<path d="M4305 3920 c3 -5 8 -10 11 -10 2 0 4 5 4 10 0 6 -5 10 -11 10 -5 0
-7 -4 -4 -10z"/>
<path d="M4015 3853 c63 -80 99 -121 89 -103 -10 19 -125 160 -131 160 -2 0
16 -26 42 -57z"/>
<path d="M3440 3857 c0 -15 45 -104 93 -182 56 -92 135 -193 221 -282 100
-106 83 -70 -25 50 -105 117 -188 233 -251 352 -21 38 -38 67 -38 62z"/>
<path d="M6900 3810 c0 -5 5 -10 10 -10 6 0 10 5 10 10 0 6 -4 10 -10 10 -5 0
-10 -4 -10 -10z"/>
<path d="M3449 3717 c17 -44 93 -161 150 -232 65 -81 171 -189 178 -182 2 3
-15 25 -39 50 -85 86 -194 223 -242 305 -49 83 -63 101 -47 59z"/>
<path d="M4142 3690 c64 -84 128 -162 128 -156 0 9 -88 121 -129 165 l-34 36
35 -45z"/>
<path d="M3400 3703 c0 -12 91 -167 120 -204 36 -48 153 -180 184 -208 14 -14
26 -19 26 -13 0 6 -6 15 -13 19 -22 14 -160 175 -209 243 -25 36 -57 89 -72
118 -24 48 -36 63 -36 45z"/>
<path d="M7300 3700 c0 -5 5 -10 11 -10 5 0 7 5 4 10 -3 6 -8 10 -11 10 -2 0
-4 -4 -4 -10z"/>
<path d="M3380 3630 c0 -18 57 -114 106 -178 53 -71 186 -214 192 -208 2 3
-21 33 -52 66 -86 93 -163 193 -206 268 -22 37 -40 60 -40 52z"/>
<path d="M3345 3592 c10 -35 72 -141 113 -192 71 -89 155 -181 160 -175 3 2
-15 26 -39 52 -92 99 -173 209 -220 301 -11 20 -17 27 -14 14z"/>
<path d="M4280 3591 c0 -6 4 -13 10 -16 6 -3 7 1 4 9 -7 18 -14 21 -14 7z"/>
<path d="M6930 3500 c0 -5 7 -10 16 -10 8 0 12 5 9 10 -3 6 -10 10 -16 10 -5
0 -9 -4 -9 -10z"/>
<path d="M4670 3491 c0 -5 5 -13 10 -16 6 -3 10 -2 10 4 0 5 -4 13 -10 16 -5
3 -10 2 -10 -4z"/>
<path d="M4339 3460 c26 -22 41 -26 41 -10 0 6 -12 15 -26 20 -37 15 -42 12
-15 -10z"/>
<path d="M7042 3468 c5 -15 28 -23 28 -10 0 5 -7 13 -16 16 -10 4 -14 1 -12
-6z"/>
<path d="M4720 3460 c0 -6 7 -10 15 -10 8 0 15 2 15 4 0 2 -7 6 -15 10 -8 3
-15 1 -15 -4z"/>
<path d="M7770 3460 c0 -5 5 -10 10 -10 6 0 10 5 10 10 0 6 -4 10 -10 10 -5 0
-10 -4 -10 -10z"/>
<path d="M2300 3450 c0 -5 4 -10 9 -10 6 0 13 5 16 10 3 6 -1 10 -9 10 -9 0
-16 -4 -16 -10z"/>
<path d="M6990 3450 c0 -5 5 -10 11 -10 5 0 7 5 4 10 -3 6 -8 10 -11 10 -2 0
-4 -4 -4 -10z"/>
<path d="M2930 3429 c0 -5 5 -7 10 -4 6 3 10 8 10 11 0 2 -4 4 -10 4 -5 0 -10
-5 -10 -11z"/>
<path d="M6935 3430 c3 -5 10 -10 16 -10 5 0 9 5 9 10 0 6 -7 10 -16 10 -8 0
-12 -4 -9 -10z"/>
<path d="M4778 3423 c7 -3 16 -2 19 1 4 3 -2 6 -13 5 -11 0 -14 -3 -6 -6z"/>
<path d="M7860 3426 c0 -2 7 -9 15 -16 12 -10 15 -10 15 4 0 9 -7 16 -15 16
-8 0 -15 -2 -15 -4z"/>
<path d="M7755 3390 c3 -5 10 -10 16 -10 5 0 9 5 9 10 0 6 -7 10 -16 10 -8 0
-12 -4 -9 -10z"/>
<path d="M2915 3360 c-3 -5 -1 -10 4 -10 6 0 11 5 11 10 0 6 -2 10 -4 10 -3 0
-8 -4 -11 -10z"/>
<path d="M4841 3366 c12 -10 59 -15 59 -6 0 5 -14 10 -32 10 -17 0 -29 -2 -27
-4z"/>
<path d="M7345 3350 c3 -5 11 -10 16 -10 6 0 7 5 4 10 -3 6 -11 10 -16 10 -6
0 -7 -4 -4 -10z"/>
<path d="M1765 3340 c-3 -5 -1 -10 4 -10 6 0 11 5 11 10 0 6 -2 10 -4 10 -3 0
-8 -4 -11 -10z"/>
<path d="M6470 3335 c0 -8 7 -15 15 -15 8 0 15 4 15 9 0 5 -7 11 -15 15 -9 3
-15 0 -15 -9z"/>
<path d="M7855 3340 c3 -5 8 -10 11 -10 2 0 4 5 4 10 0 6 -5 10 -11 10 -5 0
-7 -4 -4 -10z"/>
<path d="M1475 3310 c-3 -5 1 -10 9 -10 9 0 16 5 16 10 0 6 -4 10 -9 10 -6 0
-13 -4 -16 -10z"/>
<path d="M4990 3300 c0 -5 5 -10 11 -10 5 0 7 5 4 10 -3 6 -8 10 -11 10 -2 0
-4 -4 -4 -10z"/>
<path d="M6582 3299 c2 -7 10 -15 17 -17 8 -3 12 1 9 9 -2 7 -10 15 -17 17 -8
3 -12 -1 -9 -9z"/>
<path d="M7440 3301 c0 -6 5 -13 10 -16 6 -3 10 1 10 9 0 9 -4 16 -10 16 -5 0
-10 -4 -10 -9z"/>
<path d="M8120 3291 c0 -13 26 -32 33 -24 8 7 -11 33 -24 33 -5 0 -9 -4 -9 -9z"/>
<path d="M3890 3280 c0 -5 4 -10 9 -10 6 0 13 5 16 10 3 6 -1 10 -9 10 -9 0
-16 -4 -16 -10z"/>
<path d="M7330 3282 c0 -5 7 -16 16 -23 14 -12 16 -11 13 5 -4 20 -29 35 -29
18z"/>
<path d="M4000 3270 c0 -5 5 -10 10 -10 6 0 10 5 10 10 0 6 -4 10 -10 10 -5 0
-10 -4 -10 -10z"/>
<path d="M6525 3270 c3 -5 8 -10 11 -10 2 0 4 5 4 10 0 6 -5 10 -11 10 -5 0
-7 -4 -4 -10z"/>
<path d="M5027 3251 c6 -22 29 -35 38 -21 9 15 -6 40 -25 40 -13 0 -17 -6 -13
-19z"/>
<path d="M6452 3258 c3 -7 13 -15 24 -17 16 -3 17 -1 5 13 -16 19 -34 21 -29
4z"/>
<path d="M8230 3250 c0 -5 7 -10 15 -10 8 0 15 5 15 10 0 6 -7 10 -15 10 -8 0
-15 -4 -15 -10z"/>
<path d="M5090 3216 c0 -24 25 -43 35 -26 6 10 -16 50 -27 50 -5 0 -8 -11 -8
-24z"/>
<path d="M7430 3215 c7 -9 15 -13 17 -11 7 7 -7 26 -19 26 -6 0 -6 -6 2 -15z"/>
<path d="M6560 3216 c0 -2 7 -6 15 -10 8 -3 15 -1 15 4 0 6 -7 10 -15 10 -8 0
-15 -2 -15 -4z"/>
<path d="M8110 3210 c0 -5 9 -10 21 -10 11 0 17 5 14 10 -3 6 -13 10 -21 10
-8 0 -14 -4 -14 -10z"/>
<path d="M5140 3200 c0 -5 5 -10 11 -10 5 0 7 5 4 10 -3 6 -8 10 -11 10 -2 0
-4 -4 -4 -10z"/>
<path d="M3890 3189 c0 -5 5 -7 10 -4 6 3 10 8 10 11 0 2 -4 4 -10 4 -5 0 -10
-5 -10 -11z"/>
<path d="M3237 3173 c-10 -9 -9 -23 2 -23 5 0 11 7 15 15 5 15 -5 20 -17 8z"/>
<path d="M8555 3170 c3 -5 8 -10 11 -10 2 0 4 5 4 10 0 6 -5 10 -11 10 -5 0
-7 -4 -4 -10z"/>
<path d="M5145 3160 c-3 -5 -3 -14 0 -20 11 -17 44 -11 55 10 10 18 8 20 -19
20 -16 0 -33 -4 -36 -10z"/>
<path d="M7700 3160 c0 -5 5 -10 11 -10 5 0 7 5 4 10 -3 6 -8 10 -11 10 -2 0
-4 -4 -4 -10z"/>
<path d="M3137 3153 c-4 -3 -7 -11 -7 -17 0 -6 5 -5 12 2 6 6 9 14 7 17 -3 3
-9 2 -12 -2z"/>
<path d="M7005 3150 c3 -5 10 -10 16 -10 5 0 9 5 9 10 0 6 -7 10 -16 10 -8 0
-12 -4 -9 -10z"/>
<path d="M1710 3139 c0 -5 5 -7 10 -4 6 3 10 8 10 11 0 2 -4 4 -10 4 -5 0 -10
-5 -10 -11z"/>
<path d="M1402 3128 c5 -15 37 -18 41 -3 1 6 -9 12 -22 13 -16 3 -22 -1 -19
-10z"/>
<path d="M6890 3115 c0 -8 7 -15 16 -15 14 0 14 3 4 15 -7 8 -14 15 -16 15 -2
0 -4 -7 -4 -15z"/>
<path d="M8540 3110 c0 -5 9 -10 21 -10 11 0 17 5 14 10 -3 6 -13 10 -21 10
-8 0 -14 -4 -14 -10z"/>
<path d="M7700 3095 c0 -8 4 -15 10 -15 5 0 7 7 4 15 -4 8 -8 15 -10 15 -2 0
-4 -7 -4 -15z"/>
<path d="M7780 3100 c0 -5 7 -10 15 -10 8 0 15 5 15 10 0 6 -7 10 -15 10 -8 0
-15 -4 -15 -10z"/>
<path d="M1850 3089 c0 -5 5 -7 10 -4 6 3 10 8 10 11 0 2 -4 4 -10 4 -5 0 -10
-5 -10 -11z"/>
<path d="M1965 3090 c3 -5 8 -10 11 -10 2 0 4 5 4 10 0 6 -5 10 -11 10 -5 0
-7 -4 -4 -10z"/>
<path d="M2890 3090 c-12 -7 -12 -12 -3 -21 10 -10 14 -9 19 5 8 22 2 27 -16
16z"/>
<path d="M1690 3070 c0 -5 7 -7 15 -4 8 4 15 8 15 10 0 2 -7 4 -15 4 -8 0 -15
-4 -15 -10z"/>
<path d="M2776 3065 c4 -8 7 -15 9 -15 1 0 8 7 15 15 10 13 9 15 -8 15 -15 0
-20 -5 -16 -15z"/>
<path d="M3230 3070 c0 -5 5 -10 10 -10 6 0 10 5 10 10 0 6 -4 10 -10 10 -5 0
-10 -4 -10 -10z"/>
<path d="M1396 3061 c-3 -5 1 -11 9 -15 9 -3 15 0 15 9 0 16 -16 20 -24 6z"/>
<path d="M1900 3061 c0 -6 5 -13 10 -16 6 -3 10 1 10 9 0 9 -4 16 -10 16 -5 0
-10 -4 -10 -9z"/>
<path d="M3120 3060 c0 -5 4 -10 9 -10 6 0 13 5 16 10 3 6 -1 10 -9 10 -9 0
-16 -4 -16 -10z"/>
<path d="M5365 3060 c3 -5 8 -10 11 -10 2 0 4 5 4 10 0 6 -5 10 -11 10 -5 0
-7 -4 -4 -10z"/>
<path d="M7310 3040 c0 -6 7 -10 15 -10 8 0 15 2 15 4 0 2 -7 6 -15 10 -8 3
-15 1 -15 -4z"/>
<path d="M7770 3045 c0 -15 18 -40 24 -34 3 3 -1 14 -9 25 -8 10 -14 15 -15 9z"/>
<path d="M5400 3030 c0 -5 5 -10 10 -10 6 0 10 5 10 10 0 6 -4 10 -10 10 -5 0
-10 -4 -10 -10z"/>
<path d="M1847 3023 c-12 -11 -8 -23 8 -23 8 0 15 7 15 15 0 16 -12 20 -23 8z"/>
<path d="M7410 3000 c0 -5 5 -10 11 -10 5 0 7 5 4 10 -3 6 -8 10 -11 10 -2 0
-4 -4 -4 -10z"/>
<path d="M8080 3000 c0 -5 7 -10 15 -10 8 0 15 5 15 10 0 6 -7 10 -15 10 -8 0
-15 -4 -15 -10z"/>
<path d="M2880 2990 c0 -5 5 -10 10 -10 6 0 10 5 10 10 0 6 -4 10 -10 10 -5 0
-10 -4 -10 -10z"/>
<path d="M4170 2991 c0 -6 5 -13 10 -16 6 -3 10 1 10 9 0 9 -4 16 -10 16 -5 0
-10 -4 -10 -9z"/>
<path d="M2780 2980 c0 -5 5 -10 10 -10 6 0 10 5 10 10 0 6 -4 10 -10 10 -5 0
-10 -4 -10 -10z"/>
<path d="M6410 2975 c0 -16 16 -20 24 -6 3 5 -1 11 -9 15 -9 3 -15 0 -15 -9z"/>
<path d="M8200 2980 c0 -5 7 -10 16 -10 8 0 12 5 9 10 -3 6 -10 10 -16 10 -5
0 -9 -4 -9 -10z"/>
<path d="M6060 2971 c0 -11 31 -24 39 -16 3 3 -1 10 -9 15 -19 12 -30 12 -30
1z"/>
<path d="M2450 2950 c0 -5 7 -10 15 -10 8 0 15 5 15 10 0 6 -7 10 -15 10 -8 0
-15 -4 -15 -10z"/>
<path d="M6522 2949 c2 -7 10 -15 17 -17 8 -3 12 1 9 9 -2 7 -10 15 -17 17 -8
3 -12 -1 -9 -9z"/>
<path d="M8077 2944 c-9 -10 2 -24 18 -24 9 0 12 6 9 15 -6 16 -17 19 -27 9z"/>
<path d="M7420 2925 c7 -9 15 -13 17 -11 7 7 -7 26 -19 26 -6 0 -6 -6 2 -15z"/>
<path d="M6465 2920 c3 -5 10 -10 16 -10 5 0 9 5 9 10 0 6 -7 10 -16 10 -8 0
-12 -4 -9 -10z"/>
<path d="M3850 2905 c0 -8 5 -15 10 -15 6 0 10 7 10 15 0 8 -4 15 -10 15 -5 0
-10 -7 -10 -15z"/>
<path d="M8195 2910 c4 -6 11 -8 16 -5 14 9 11 15 -7 15 -8 0 -12 -5 -9 -10z"/>
<path d="M8520 2905 c0 -9 5 -15 11 -13 6 2 11 8 11 13 0 5 -5 11 -11 13 -6 2
-11 -4 -11 -13z"/>
<path d="M6400 2902 c0 -5 7 -13 16 -16 10 -4 14 -1 12 6 -5 15 -28 23 -28 10z"/>
<path d="M4165 2890 c4 -6 11 -8 16 -5 14 9 11 15 -7 15 -8 0 -12 -5 -9 -10z"/>
<path d="M3556 2871 c-4 -7 -5 -15 -2 -18 9 -9 19 4 14 18 -4 11 -6 11 -12 0z"/>
<path d="M1240 2854 c0 -9 5 -14 12 -12 18 6 21 28 4 28 -9 0 -16 -7 -16 -16z"/>
<path d="M3445 2860 c4 -6 11 -8 16 -5 14 9 11 15 -7 15 -8 0 -12 -5 -9 -10z"/>
<path d="M3910 2859 c0 -5 5 -7 10 -4 6 3 10 8 10 11 0 2 -4 4 -10 4 -5 0 -10
-5 -10 -11z"/>
<path d="M6520 2860 c0 -5 5 -10 11 -10 5 0 7 5 4 10 -3 6 -8 10 -11 10 -2 0
-4 -4 -4 -10z"/>
<path d="M1345 2840 c-8 -13 15 -24 27 -12 6 6 4 11 -6 15 -8 3 -18 2 -21 -3z"/>
<path d="M8505 2840 c-3 -5 3 -10 14 -10 12 0 21 5 21 10 0 6 -6 10 -14 10 -8
0 -18 -4 -21 -10z"/>
<path d="M3857 2816 c-4 -10 -1 -13 8 -9 8 3 12 9 9 14 -7 12 -11 11 -17 -5z"/>
<path d="M1295 2810 c3 -5 8 -10 11 -10 2 0 4 5 4 10 0 6 -5 10 -11 10 -5 0
-7 -4 -4 -10z"/>
<path d="M6965 2810 c4 -6 11 -8 16 -5 14 9 11 15 -7 15 -8 0 -12 -5 -9 -10z"/>
<path d="M8400 2810 c0 -5 5 -10 11 -10 5 0 7 5 4 10 -3 6 -8 10 -11 10 -2 0
-4 -4 -4 -10z"/>
<path d="M1235 2790 c-3 -5 1 -10 10 -10 9 0 13 5 10 10 -3 6 -8 10 -10 10 -2
0 -7 -4 -10 -10z"/>
<path d="M3100 2775 c0 -8 5 -15 10 -15 6 0 10 7 10 15 0 8 -4 15 -10 15 -5 0
-10 -7 -10 -15z"/>
<path d="M5075 2780 c4 -6 11 -8 16 -5 14 9 11 15 -7 15 -8 0 -12 -5 -9 -10z"/>
<path d="M5552 2781 c4 -13 18 -16 19 -4 0 4 -5 9 -11 12 -7 2 -11 -2 -8 -8z"/>
<path d="M8905 2780 c3 -5 13 -10 21 -10 8 0 12 5 9 10 -3 6 -13 10 -21 10 -8
0 -12 -4 -9 -10z"/>
<path d="M1337 2764 c-8 -8 1 -24 14 -24 5 0 9 7 9 15 0 15 -12 20 -23 9z"/>
<path d="M6850 2760 c0 -5 5 -10 10 -10 6 0 10 5 10 10 0 6 -4 10 -10 10 -5 0
-10 -4 -10 -10z"/>
<path d="M1940 2749 c0 -5 5 -7 10 -4 6 3 10 8 10 11 0 2 -4 4 -10 4 -5 0 -10
-5 -10 -11z"/>
<path d="M5490 2750 c0 -5 5 -10 11 -10 5 0 7 5 4 10 -3 6 -8 10 -11 10 -2 0
-4 -4 -4 -10z"/>
<path d="M1830 2734 c0 -14 3 -14 15 -4 8 7 15 14 15 16 0 2 -7 4 -15 4 -8 0
-15 -7 -15 -16z"/>
<path d="M7295 2740 c-3 -5 3 -10 14 -10 12 0 21 5 21 10 0 6 -6 10 -14 10 -8
0 -18 -4 -21 -10z"/>
<path d="M8040 2735 c0 -8 9 -15 20 -15 11 0 20 2 20 5 0 2 -9 9 -20 15 -16 9
-20 8 -20 -5z"/>
<path d="M9010 2732 c0 -5 7 -13 16 -16 10 -4 14 -1 12 6 -5 15 -28 23 -28 10z"/>
<path d="M5420 2720 c0 -5 5 -10 10 -10 6 0 10 5 10 10 0 6 -4 10 -10 10 -5 0
-10 -4 -10 -10z"/>
<path d="M8890 2720 c0 -5 7 -10 15 -10 8 0 15 5 15 10 0 6 -7 10 -15 10 -8 0
-15 -4 -15 -10z"/>
<path d="M1085 2711 c-6 -11 9 -23 19 -14 9 9 7 23 -3 23 -6 0 -12 -4 -16 -9z"/>
<path d="M7410 2711 c0 -6 5 -13 10 -16 6 -3 10 1 10 9 0 9 -4 16 -10 16 -5 0
-10 -4 -10 -9z"/>
<path d="M3095 2690 c3 -5 10 -10 16 -10 5 0 9 5 9 10 0 6 -7 10 -16 10 -8 0
-12 -4 -9 -10z"/>
<path d="M6015 2690 c3 -5 11 -10 16 -10 6 0 7 5 4 10 -3 6 -11 10 -16 10 -6
0 -7 -4 -4 -10z"/>
<path d="M8150 2690 c0 -5 7 -10 15 -10 8 0 15 5 15 10 0 6 -7 10 -15 10 -8 0
-15 -4 -15 -10z"/>
<path d="M2330 2664 c0 -8 5 -12 10 -9 6 4 8 11 5 16 -9 14 -15 11 -15 -7z"/>
<path d="M2442 2671 c4 -13 18 -16 19 -4 0 4 -5 9 -11 12 -7 2 -11 -2 -8 -8z"/>
<path d="M7300 2665 c7 -9 15 -13 17 -11 7 7 -7 26 -19 26 -6 0 -6 -6 2 -15z"/>
<path d="M8030 2672 c0 -5 7 -16 16 -23 14 -12 16 -11 13 5 -4 20 -29 35 -29
18z"/>
<path d="M8095 2670 c3 -5 8 -10 11 -10 2 0 4 5 4 10 0 6 -5 10 -11 10 -5 0
-7 -4 -4 -10z"/>
<path d="M9000 2672 c0 -5 7 -16 16 -23 14 -12 16 -11 13 5 -4 20 -29 35 -29
18z"/>
<path d="M1830 2660 c0 -5 5 -10 10 -10 6 0 10 5 10 10 0 6 -4 10 -10 10 -5 0
-10 -4 -10 -10z"/>
<path d="M5950 2660 c0 -5 5 -10 10 -10 6 0 10 5 10 10 0 6 -4 10 -10 10 -5 0
-10 -4 -10 -10z"/>
<path d="M1100 2630 c0 -5 5 -10 10 -10 6 0 10 5 10 10 0 6 -4 10 -10 10 -5 0
-10 -4 -10 -10z"/>
<path d="M5896 2625 c4 -8 8 -15 10 -15 2 0 4 7 4 15 0 8 -4 15 -10 15 -5 0
-7 -7 -4 -15z"/>
<path d="M8486 2633 c-11 -11 -6 -23 9 -23 8 0 15 4 15 9 0 13 -16 22 -24 14z"/>
<path d="M7716 2617 c3 -10 9 -15 12 -12 3 3 0 11 -7 18 -10 9 -11 8 -5 -6z"/>
<path d="M8135 2620 c3 -5 13 -10 21 -10 8 0 12 5 9 10 -3 6 -13 10 -21 10 -8
0 -12 -4 -9 -10z"/>
<path d="M6010 2595 c7 -9 15 -13 17 -11 7 7 -7 26 -19 26 -6 0 -6 -6 2 -15z"/>
<path d="M2330 2575 c0 -9 6 -12 15 -9 8 4 12 10 9 15 -8 14 -24 10 -24 -6z"/>
<path d="M2445 2580 c3 -5 10 -10 16 -10 5 0 9 5 9 10 0 6 -7 10 -16 10 -8 0
-12 -4 -9 -10z"/>
<path d="M8470 2555 c0 -8 4 -15 10 -15 5 0 7 7 4 15 -4 8 -8 15 -10 15 -2 0
-4 -7 -4 -15z"/>
<path d="M9076 2552 c-3 -6 -1 -14 5 -17 15 -10 25 3 12 16 -7 7 -13 7 -17 1z"/>
<path d="M7720 2541 c0 -5 5 -13 10 -16 6 -3 10 -2 10 4 0 5 -4 13 -10 16 -5
3 -10 2 -10 -4z"/>
<path d="M1206 2525 c4 -8 10 -15 15 -15 5 0 9 7 9 15 0 8 -7 15 -15 15 -9 0
-12 -6 -9 -15z"/>
<path d="M9290 2525 c7 -9 15 -13 17 -11 7 7 -7 26 -19 26 -6 0 -6 -6 2 -15z"/>
<path d="M8820 2523 c1 -21 19 -35 36 -29 18 7 18 8 0 22 -22 15 -36 18 -36 7z"/>
<path d="M1300 2511 c0 -11 26 -22 34 -14 12 12 5 23 -14 23 -11 0 -20 -4 -20
-9z"/>
<path d="M3370 2495 c0 -21 16 -27 29 -11 9 11 7 15 -9 19 -13 3 -20 0 -20 -8z"/>
<path d="M3497 2503 c-12 -11 -8 -23 8 -23 8 0 15 7 15 15 0 16 -12 20 -23 8z"/>
<path d="M5020 2495 c0 -8 4 -15 9 -15 5 0 11 7 15 15 3 9 0 15 -9 15 -8 0
-15 -7 -15 -15z"/>
<path d="M6470 2500 c0 -5 5 -10 11 -10 5 0 7 5 4 10 -3 6 -8 10 -11 10 -2 0
-4 -4 -4 -10z"/>
<path d="M6800 2500 c0 -5 7 -10 16 -10 8 0 12 5 9 10 -3 6 -10 10 -16 10 -5
0 -9 -4 -9 -10z"/>
<path d="M9050 2480 c0 -5 5 -10 11 -10 5 0 7 5 4 10 -3 6 -8 10 -11 10 -2 0
-4 -4 -4 -10z"/>
<path d="M6916 2455 c4 -8 10 -15 15 -15 5 0 9 7 9 15 0 8 -7 15 -15 15 -9 0
-12 -6 -9 -15z"/>
<path d="M8930 2456 c0 -9 7 -16 16 -16 17 0 14 22 -4 28 -7 2 -12 -3 -12 -12z"/>
<path d="M9325 2460 c3 -5 8 -10 11 -10 2 0 4 5 4 10 0 6 -5 10 -11 10 -5 0
-7 -4 -4 -10z"/>
<path d="M9370 2461 c0 -5 5 -13 10 -16 6 -3 10 -2 10 4 0 5 -4 13 -10 16 -5
3 -10 2 -10 -4z"/>
<path d="M690 2450 c0 -5 5 -10 10 -10 6 0 10 5 10 10 0 6 -4 10 -10 10 -5 0
-10 -4 -10 -10z"/>
<path d="M1206 2453 c-11 -11 -6 -23 9 -23 8 0 15 4 15 9 0 13 -16 22 -24 14z"/>
<path d="M3440 2439 c0 -5 5 -7 10 -4 6 3 10 8 10 11 0 2 -4 4 -10 4 -5 0 -10
-5 -10 -11z"/>
<path d="M6860 2440 c0 -5 5 -10 11 -10 5 0 7 5 4 10 -3 6 -8 10 -11 10 -2 0
-4 -4 -4 -10z"/>
<path d="M8805 2440 c-4 -7 -1 -16 6 -21 17 -10 26 8 11 23 -6 6 -12 6 -17 -2z"/>
<path d="M8870 2440 c0 -5 5 -10 10 -10 6 0 10 5 10 10 0 6 -4 10 -10 10 -5 0
-10 -4 -10 -10z"/>
<path d="M1310 2430 c0 -5 5 -10 10 -10 6 0 10 5 10 10 0 6 -4 10 -10 10 -5 0
-10 -4 -10 -10z"/>
<path d="M8000 2430 c0 -5 7 -10 16 -10 8 0 12 5 9 10 -3 6 -10 10 -16 10 -5
0 -9 -4 -9 -10z"/>
<path d="M820 2419 c0 -5 5 -7 10 -4 6 3 10 8 10 11 0 2 -4 4 -10 4 -5 0 -10
-5 -10 -11z"/>
<path d="M6800 2416 c0 -9 5 -16 10 -16 6 0 10 4 10 9 0 6 -4 13 -10 16 -5 3
-10 -1 -10 -9z"/>
<path d="M3505 2410 c-8 -13 -1 -24 14 -19 6 3 7 10 2 18 -6 10 -10 10 -16 1z"/>
<path d="M9156 2405 c4 -8 8 -15 10 -15 2 0 4 7 4 15 0 8 -4 15 -10 15 -5 0
-7 -7 -4 -15z"/>
<path d="M3377 2403 c-12 -11 -8 -23 8 -23 8 0 15 7 15 15 0 16 -12 20 -23 8z"/>
<path d="M5485 2400 c3 -5 11 -10 16 -10 6 0 7 5 4 10 -3 6 -11 10 -16 10 -6
0 -7 -4 -4 -10z"/>
<path d="M9350 2406 c0 -2 7 -9 15 -16 12 -10 15 -10 15 4 0 9 -7 16 -15 16
-8 0 -15 -2 -15 -4z"/>
<path d="M1526 2383 c-11 -11 -6 -23 9 -23 8 0 15 4 15 9 0 13 -16 22 -24 14z"/>
<path d="M8110 2375 c7 -9 15 -13 17 -11 7 7 -7 26 -19 26 -6 0 -6 -6 2 -15z"/>
<path d="M8906 2376 c7 -19 38 -22 32 -3 -3 6 -12 13 -21 15 -12 2 -15 -1 -11
-12z"/>
<path d="M6920 2370 c0 -5 5 -10 11 -10 5 0 7 5 4 10 -3 6 -8 10 -11 10 -2 0
-4 -4 -4 -10z"/>
<path d="M8055 2370 c3 -5 8 -10 11 -10 2 0 4 5 4 10 0 6 -5 10 -11 10 -5 0
-7 -4 -4 -10z"/>
<path d="M1415 2360 c-3 -5 -1 -10 4 -10 6 0 11 5 11 10 0 6 -2 10 -4 10 -3 0
-8 -4 -11 -10z"/>
<path d="M2760 2360 c0 -5 5 -10 10 -10 6 0 10 5 10 10 0 6 -4 10 -10 10 -5 0
-10 -4 -10 -10z"/>
<path d="M840 2350 c0 -5 5 -10 11 -10 5 0 7 5 4 10 -3 6 -8 10 -11 10 -2 0
-4 -4 -4 -10z"/>
<path d="M7990 2352 c0 -5 7 -13 16 -16 10 -4 14 -1 12 6 -5 15 -28 23 -28 10z"/>
<path d="M5355 2340 c-3 -5 1 -10 10 -10 9 0 13 5 10 10 -3 6 -8 10 -10 10 -2
0 -7 -4 -10 -10z"/>
<path d="M5826 2342 c-3 -6 -1 -14 5 -17 15 -10 25 3 12 16 -7 7 -13 7 -17 1z"/>
<path d="M1475 2330 c-3 -5 -1 -10 4 -10 6 0 11 5 11 10 0 6 -2 10 -4 10 -3 0
-8 -4 -11 -10z"/>
<path d="M5952 2319 c2 -7 10 -15 17 -17 8 -3 12 1 9 9 -2 7 -10 15 -17 17 -8
3 -12 -1 -9 -9z"/>
<path d="M5470 2310 c0 -5 5 -10 10 -10 6 0 10 5 10 10 0 6 -4 10 -10 10 -5 0
-10 -4 -10 -10z"/>
<path d="M8100 2311 c0 -5 5 -13 10 -16 6 -3 10 -2 10 4 0 5 -4 13 -10 16 -5
3 -10 2 -10 -4z"/>
<path d="M2415 2300 c-3 -5 -1 -10 4 -10 6 0 11 5 11 10 0 6 -2 10 -4 10 -3 0
-8 -4 -11 -10z"/>
<path d="M7710 2295 c0 -9 5 -15 11 -13 6 2 11 8 11 13 0 5 -5 11 -11 13 -6 2
-11 -4 -11 -13z"/>
<path d="M8420 2296 c0 -9 7 -16 16 -16 17 0 14 22 -4 28 -7 2 -12 -3 -12 -12z"/>
<path d="M2320 2284 c0 -8 5 -12 10 -9 6 3 10 10 10 16 0 5 -4 9 -10 9 -5 0
-10 -7 -10 -16z"/>
<path d="M1420 2280 c0 -5 5 -10 10 -10 6 0 10 5 10 10 0 6 -4 10 -10 10 -5 0
-10 -4 -10 -10z"/>
<path d="M1535 2280 c3 -5 8 -10 11 -10 2 0 4 5 4 10 0 6 -5 10 -11 10 -5 0
-7 -4 -4 -10z"/>
<path d="M9210 2270 c0 -13 7 -20 20 -20 23 0 26 10 8 28 -18 18 -28 15 -28
-8z"/>
<path d="M1110 2270 c0 -5 5 -10 11 -10 5 0 7 5 4 10 -3 6 -8 10 -11 10 -2 0
-4 -4 -4 -10z"/>
<path d="M1866 2266 c3 -8 12 -12 20 -9 17 6 9 23 -11 23 -8 0 -12 -6 -9 -14z"/>
<path d="M1987 2273 c-12 -11 -8 -23 8 -23 8 0 15 7 15 15 0 16 -12 20 -23 8z"/>
<path d="M2760 2269 c0 -5 5 -7 10 -4 6 3 10 8 10 11 0 2 -4 4 -10 4 -5 0 -10
-5 -10 -11z"/>
<path d="M5810 2250 c0 -5 9 -10 21 -10 11 0 17 5 14 10 -3 6 -13 10 -21 10
-8 0 -14 -4 -14 -10z"/>
<path d="M5940 2239 c-13 -8 -13 -10 0 -19 21 -14 30 -12 30 4 0 20 -13 27
-30 15z"/>
<path d="M755 2231 c-3 -5 -1 -12 5 -16 12 -7 30 2 30 16 0 12 -27 12 -35 0z"/>
<path d="M7710 2210 c0 -5 5 -10 10 -10 6 0 10 5 10 10 0 6 -4 10 -10 10 -5 0
-10 -4 -10 -10z"/>
<path d="M8410 2211 c0 -6 5 -13 10 -16 6 -3 10 1 10 9 0 9 -4 16 -10 16 -5 0
-10 -4 -10 -9z"/>
<path d="M9300 2208 c0 -18 18 -34 28 -24 3 4 -2 14 -11 23 -16 16 -17 16 -17
1z"/>
<path d="M9182 2199 c2 -7 10 -15 17 -17 8 -3 12 1 9 9 -2 7 -10 15 -17 17 -8
3 -12 -1 -9 -9z"/>
<path d="M9250 2200 c0 -5 5 -10 10 -10 6 0 10 5 10 10 0 6 -4 10 -10 10 -5 0
-10 -4 -10 -10z"/>
<path d="M9605 2200 c3 -5 8 -10 11 -10 2 0 4 5 4 10 0 6 -5 10 -11 10 -5 0
-7 -4 -4 -10z"/>
<path d="M505 2190 c-3 -5 -2 -10 4 -10 5 0 13 5 16 10 3 6 2 10 -4 10 -5 0
-13 -4 -16 -10z"/>
<path d="M1867 2176 c-3 -6 4 -13 14 -13 22 -2 25 12 5 20 -8 3 -16 0 -19 -7z"/>
<path d="M1992 2181 c2 -7 7 -12 11 -12 12 1 9 15 -3 20 -7 2 -11 -2 -8 -8z"/>
<path d="M3706 2175 c4 -8 7 -15 9 -15 2 0 5 7 9 15 3 9 0 15 -9 15 -9 0 -12
-6 -9 -15z"/>
<path d="M8700 2176 c0 -9 5 -16 10 -16 6 0 10 4 10 9 0 6 -4 13 -10 16 -5 3
-10 -1 -10 -9z"/>
<path d="M9070 2180 c0 -5 5 -10 10 -10 6 0 10 5 10 10 0 6 -4 10 -10 10 -5 0
-10 -4 -10 -10z"/>
<path d="M777 2163 c-12 -11 -8 -21 12 -26 25 -6 34 2 20 20 -13 14 -22 16
-32 6z"/>
<path d="M9480 2136 c0 -9 5 -16 10 -16 6 0 10 4 10 9 0 6 -4 13 -10 16 -5 3
-10 -1 -10 -9z"/>
<path d="M6760 2130 c0 -5 4 -10 9 -10 6 0 13 5 16 10 3 6 -1 10 -9 10 -9 0
-16 -4 -16 -10z"/>
<path d="M9280 2132 c0 -5 7 -16 16 -23 14 -12 16 -11 13 5 -4 20 -29 35 -29
18z"/>
<path d="M8795 2120 c3 -5 11 -10 16 -10 6 0 7 5 4 10 -3 6 -11 10 -16 10 -6
0 -7 -4 -4 -10z"/>
<path d="M4950 2111 c0 -5 5 -13 10 -16 6 -3 10 -2 10 4 0 5 -4 13 -10 16 -5
3 -10 2 -10 -4z"/>
<path d="M1205 2100 c3 -5 10 -10 16 -10 5 0 9 5 9 10 0 6 -7 10 -16 10 -8 0
-12 -4 -9 -10z"/>
<path d="M3365 2099 c-4 -6 -5 -13 -2 -16 7 -7 27 6 27 18 0 12 -17 12 -25 -2z"/>
<path d="M6880 2100 c0 -5 5 -10 11 -10 5 0 7 5 4 10 -3 6 -8 10 -11 10 -2 0
-4 -4 -4 -10z"/>
<path d="M8725 2100 c3 -5 8 -10 11 -10 2 0 4 5 4 10 0 6 -5 10 -11 10 -5 0
-7 -4 -4 -10z"/>
<path d="M280 2075 c0 -15 6 -25 14 -25 19 0 28 14 20 34 -10 25 -34 19 -34
-9z"/>
<path d="M900 2090 c0 -5 5 -10 10 -10 6 0 10 5 10 10 0 6 -4 10 -10 10 -5 0
-10 -4 -10 -10z"/>
<path d="M3702 2088 c5 -15 28 -18 29 -3 0 6 -7 12 -17 13 -10 3 -15 -1 -12
-10z"/>
<path d="M3825 2090 c-3 -5 1 -10 10 -10 9 0 13 5 10 10 -3 6 -8 10 -10 10 -2
0 -7 -4 -10 -10z"/>
<path d="M3041 2081 c-8 -5 -10 -14 -6 -21 6 -9 10 -8 17 4 12 21 7 28 -11 17z"/>
<path d="M7932 2078 c3 -7 13 -15 24 -17 16 -3 17 -1 5 13 -16 19 -34 21 -29
4z"/>
<path d="M2930 2064 c0 -8 5 -12 10 -9 6 4 8 11 5 16 -9 14 -15 11 -15 -7z"/>
<path d="M4890 2070 c0 -5 5 -10 10 -10 6 0 10 5 10 10 0 6 -4 10 -10 10 -5 0
-10 -4 -10 -10z"/>
<path d="M9725 2071 c-3 -5 -1 -12 5 -16 5 -3 10 1 10 9 0 18 -6 21 -15 7z"/>
<path d="M4826 2035 c-3 -9 0 -15 9 -15 8 0 15 7 15 15 0 8 -4 15 -9 15 -5 0
-11 -7 -15 -15z"/>
<path d="M8057 2039 c7 -7 15 -10 18 -7 3 3 -2 9 -12 12 -14 6 -15 5 -6 -5z"/>
<path d="M8760 2041 c0 -6 5 -13 10 -16 6 -3 10 1 10 9 0 9 -4 16 -10 16 -5 0
-10 -4 -10 -9z"/>
<path d="M360 2010 c0 -15 5 -20 18 -18 9 2 17 10 17 18 0 8 -8 16 -17 18 -13
2 -18 -3 -18 -18z"/>
<path d="M7210 2020 c0 -5 7 -10 16 -10 8 0 12 5 9 10 -3 6 -10 10 -16 10 -5
0 -9 -4 -9 -10z"/>
<path d="M300 2005 c0 -9 5 -15 11 -13 6 2 11 8 11 13 0 5 -5 11 -11 13 -6 2
-11 -4 -11 -13z"/>
<path d="M1430 2005 c0 -10 7 -15 18 -13 21 4 19 22 -2 26 -10 2 -16 -3 -16
-13z"/>
<path d="M4940 2010 c0 -5 5 -10 10 -10 6 0 10 5 10 10 0 6 -4 10 -10 10 -5 0
-10 -4 -10 -10z"/>
<path d="M5420 2010 c0 -5 5 -10 10 -10 6 0 10 5 10 10 0 6 -4 10 -10 10 -5 0
-10 -4 -10 -10z"/>
<path d="M246 1995 c-3 -8 -1 -15 4 -15 13 0 22 18 11 24 -5 3 -11 -1 -15 -9z"/>
<path d="M9804 1994 c3 -9 6 -18 6 -20 0 -3 5 -2 10 1 16 10 12 35 -6 35 -11
0 -14 -5 -10 -16z"/>
<path d="M7920 1986 c0 -9 7 -16 16 -16 9 0 14 5 12 12 -6 18 -28 21 -28 4z"/>
<path d="M5355 1980 c3 -5 8 -10 11 -10 2 0 4 5 4 10 0 6 -5 10 -11 10 -5 0
-7 -4 -4 -10z"/>
<path d="M7325 1980 c3 -5 8 -10 11 -10 2 0 4 5 4 10 0 6 -5 10 -11 10 -5 0
-7 -4 -4 -10z"/>
<path d="M542 1969 c2 -6 8 -10 13 -10 5 0 11 4 13 10 2 6 -4 11 -13 11 -9 0
-15 -5 -13 -11z"/>
<path d="M2920 1969 c0 -5 5 -7 10 -4 6 3 10 8 10 11 0 2 -4 4 -10 4 -5 0 -10
-5 -10 -11z"/>
<path d="M9856 1971 c-4 -5 -2 -12 3 -15 5 -4 12 -2 15 3 4 5 2 12 -3 15 -5 4
-12 2 -15 -3z"/>
<path d="M9082 1954 c1 -9 9 -19 16 -22 9 -3 13 2 10 14 -1 9 -9 19 -16 22 -9
3 -13 -2 -10 -14z"/>
<path d="M310 1942 c0 -19 18 -42 32 -42 4 0 8 14 8 30 0 23 -4 30 -20 30 -13
0 -20 -7 -20 -18z"/>
<path d="M2325 1951 c-3 -5 -1 -12 5 -16 5 -3 10 1 10 9 0 18 -6 21 -15 7z"/>
<path d="M5280 1951 c0 -5 7 -11 15 -15 9 -3 15 0 15 9 0 8 -7 15 -15 15 -8 0
-15 -4 -15 -9z"/>
<path d="M7206 1941 c-3 -5 1 -11 9 -14 9 -4 12 -1 8 9 -6 16 -10 17 -17 5z"/>
<path d="M8350 1935 c0 -9 5 -15 11 -13 6 2 11 8 11 13 0 5 -5 11 -11 13 -6 2
-11 -4 -11 -13z"/>
<path d="M9900 1935 c0 -8 7 -15 15 -15 9 0 12 6 9 15 -4 8 -10 15 -15 15 -5
0 -9 -7 -9 -15z"/>
<path d="M2235 1930 c-3 -5 -2 -10 4 -10 5 0 13 5 16 10 3 6 2 10 -4 10 -5 0
-13 -4 -16 -10z"/>
<path d="M5890 1930 c0 -5 5 -10 11 -10 5 0 7 5 4 10 -3 6 -8 10 -11 10 -2 0
-4 -4 -4 -10z"/>
<path d="M9410 1926 c0 -9 5 -16 10 -16 6 0 10 4 10 9 0 6 -4 13 -10 16 -5 3
-10 -1 -10 -9z"/>
<path d="M5405 1920 c-3 -5 1 -10 10 -10 9 0 13 5 10 10 -3 6 -8 10 -10 10 -2
0 -7 -4 -10 -10z"/>
<path d="M7660 1919 c0 -5 5 -7 10 -4 6 3 10 8 10 11 0 2 -4 4 -10 4 -5 0 -10
-5 -10 -11z"/>
<path d="M9830 1911 c0 -12 6 -21 16 -21 9 0 14 7 12 17 -5 25 -28 28 -28 4z"/>
<path d="M1260 1894 c0 -9 7 -14 17 -12 25 5 28 28 4 28 -12 0 -21 -6 -21 -16z"/>
<path d="M1986 1901 c-4 -7 -5 -15 -2 -18 9 -9 19 4 14 18 -4 11 -6 11 -12 0z"/>
<path d="M842 1888 c7 -19 38 -22 38 -4 0 10 -9 16 -21 16 -12 0 -19 -5 -17
-12z"/>
<path d="M1860 1891 c0 -18 18 -21 30 -6 10 13 9 15 -9 15 -11 0 -21 -4 -21
-9z"/>
<path d="M9162 1882 c4 -19 29 -23 35 -6 2 6 -6 14 -17 17 -16 4 -20 1 -18
-11z"/>
<path d="M9050 1881 c0 -6 5 -13 10 -16 6 -3 10 1 10 9 0 9 -4 16 -10 16 -5 0
-10 -4 -10 -9z"/>
<path d="M750 1865 c-9 -11 -10 -19 -3 -26 7 -7 14 -5 23 6 9 11 10 19 3 26
-7 7 -14 5 -23 -6z"/>
<path d="M1537 1873 c-4 -3 -7 -11 -7 -17 0 -6 5 -5 12 2 6 6 9 14 7 17 -3 3
-9 2 -12 -2z"/>
<path d="M9380 1861 c0 -5 7 -11 14 -14 10 -4 13 -1 9 9 -6 15 -23 19 -23 5z"/>
<path d="M473 1844 c-9 -23 13 -40 32 -24 12 10 13 16 4 26 -15 18 -28 18 -36
-2z"/>
<path d="M8330 1845 c0 -9 6 -12 15 -9 8 4 12 10 9 15 -8 14 -24 10 -24 -6z"/>
<path d="M815 1841 c-3 -5 -1 -12 5 -16 5 -3 10 1 10 9 0 18 -6 21 -15 7z"/>
<path d="M410 1820 c0 -5 5 -10 10 -10 6 0 10 5 10 10 0 6 -4 10 -10 10 -5 0
-10 -4 -10 -10z"/>
<path d="M881 1820 c-16 -9 -6 -30 15 -30 15 0 20 25 6 34 -4 2 -14 1 -21 -4z"/>
<path d="M1285 1820 c3 -5 8 -10 11 -10 2 0 4 5 4 10 0 6 -5 10 -11 10 -5 0
-7 -4 -4 -10z"/>
<path d="M9132 1803 c5 -25 28 -28 28 -4 0 12 -6 21 -16 21 -9 0 -14 -7 -12
-17z"/>
<path d="M355 1800 c3 -5 8 -10 11 -10 2 0 4 5 4 10 0 6 -5 10 -11 10 -5 0 -7
-4 -4 -10z"/>
<path d="M1860 1795 c0 -9 6 -12 15 -9 8 4 15 10 15 15 0 5 -7 9 -15 9 -8 0
-15 -7 -15 -15z"/>
<path d="M1970 1800 c0 -5 5 -10 10 -10 6 0 10 5 10 10 0 6 -4 10 -10 10 -5 0
-10 -4 -10 -10z"/>
<path d="M770 1770 c0 -24 15 -27 24 -4 9 22 8 24 -9 24 -8 0 -15 -9 -15 -20z"/>
<path d="M9492 1773 c5 -25 28 -28 28 -4 0 12 -6 21 -16 21 -9 0 -14 -7 -12
-17z"/>
<path d="M437 1774 c-15 -15 -7 -45 11 -42 9 2 17 12 17 22 0 20 -16 31 -28
20z"/>
<path d="M1420 1770 c0 -5 5 -10 11 -10 5 0 7 5 4 10 -3 6 -8 10 -11 10 -2 0
-4 -4 -4 -10z"/>
<path d="M1520 1770 c0 -5 9 -10 21 -10 11 0 17 5 14 10 -3 6 -13 10 -21 10
-8 0 -14 -4 -14 -10z"/>
<path d="M306 1723 c-8 -21 10 -41 24 -27 11 11 3 44 -10 44 -4 0 -11 -8 -14
-17z"/>
<path d="M9595 1721 c-3 -5 -1 -12 5 -16 5 -3 10 1 10 9 0 18 -6 21 -15 7z"/>
<path d="M164 1695 c-4 -9 -2 -21 4 -27 15 -15 44 -1 40 19 -4 23 -36 29 -44
8z"/>
<path d="M4892 1698 c6 -18 28 -21 28 -4 0 9 -7 16 -16 16 -9 0 -14 -5 -12
-12z"/>
<path d="M606 1684 c-9 -22 -8 -24 9 -24 8 0 15 9 15 20 0 24 -15 27 -24 4z"/>
<path d="M9522 1683 c5 -25 28 -28 28 -4 0 12 -6 21 -16 21 -9 0 -14 -7 -12
-17z"/>
<path d="M3020 1675 c0 -8 4 -15 9 -15 5 0 11 7 15 15 3 9 0 15 -9 15 -8 0
-15 -7 -15 -15z"/>
<path d="M9984 1666 c-4 -10 -2 -22 4 -28 8 -8 13 -7 18 6 4 10 2 22 -4 28 -8
8 -13 7 -18 -6z"/>
<path d="M2900 1654 c0 -8 5 -12 10 -9 6 3 10 10 10 16 0 5 -4 9 -10 9 -5 0
-10 -7 -10 -16z"/>
<path d="M7170 1648 c0 -17 2 -18 15 -8 8 7 15 14 15 15 0 2 -7 5 -15 9 -10 4
-15 -1 -15 -16z"/>
<path d="M9680 1651 c0 -6 5 -13 10 -16 6 -3 10 1 10 9 0 9 -4 16 -10 16 -5 0
-10 -4 -10 -9z"/>
<path d="M5230 1640 c0 -5 5 -10 10 -10 6 0 10 5 10 10 0 6 -4 10 -10 10 -5 0
-10 -4 -10 -10z"/>
<path d="M9912 1629 c1 -13 8 -23 13 -21 15 3 12 35 -3 40 -9 3 -13 -3 -10
-19z"/>
<path d="M486 1633 c-12 -12 -6 -43 9 -43 8 0 15 9 15 19 0 21 -13 34 -24 24z"/>
<path d="M532 1628 c-17 -17 5 -43 24 -27 8 6 14 18 14 25 0 17 -22 18 -38 2z"/>
<path d="M8947 1633 c-14 -13 -6 -33 13 -33 11 0 20 4 20 9 0 13 -26 32 -33
24z"/>
<path d="M140 1600 c0 -16 4 -30 9 -30 12 0 24 37 16 50 -12 20 -25 10 -25
-20z"/>
<path d="M624 1619 c-8 -14 11 -33 25 -25 6 4 11 11 11 16 0 13 -29 20 -36 9z"/>
<path d="M7290 1615 c0 -8 5 -15 10 -15 6 0 10 7 10 15 0 8 -4 15 -10 15 -5 0
-10 -7 -10 -15z"/>
<path d="M4886 1612 c-3 -5 1 -15 9 -22 16 -14 20 -3 6 19 -5 8 -11 9 -15 3z"/>
<path d="M9160 1596 c0 -9 5 -16 10 -16 6 0 10 4 10 9 0 6 -4 13 -10 16 -5 3
-10 -1 -10 -9z"/>
<path d="M9960 1595 c0 -8 5 -15 10 -15 6 0 10 7 10 15 0 8 -4 15 -10 15 -5 0
-10 -7 -10 -15z"/>
<path d="M7230 1590 c0 -5 5 -10 11 -10 5 0 7 5 4 10 -3 6 -8 10 -11 10 -2 0
-4 -4 -4 -10z"/>
<path d="M1245 1580 c4 -6 11 -8 16 -5 14 9 11 15 -7 15 -8 0 -12 -5 -9 -10z"/>
<path d="M9306 1575 c-9 -24 1 -34 24 -28 12 3 20 12 18 22 -4 22 -34 26 -42
6z"/>
<path d="M10006 1583 c-12 -12 -6 -33 9 -33 8 0 15 6 15 14 0 17 -14 28 -24
19z"/>
<path d="M2170 1565 c0 -9 5 -15 11 -13 6 2 11 8 11 13 0 5 -5 11 -11 13 -6 2
-11 -4 -11 -13z"/>
<path d="M2275 1571 c-6 -11 9 -23 19 -14 9 9 7 23 -3 23 -6 0 -12 -4 -16 -9z"/>
<path d="M2900 1564 c0 -8 5 -12 10 -9 6 3 10 10 10 16 0 5 -4 9 -10 9 -5 0
-10 -7 -10 -16z"/>
<path d="M9720 1559 c0 -11 5 -17 10 -14 6 3 10 13 10 21 0 8 -4 14 -10 14 -5
0 -10 -9 -10 -21z"/>
<path d="M7170 1560 c0 -5 5 -10 11 -10 5 0 7 5 4 10 -3 6 -8 10 -11 10 -2 0
-4 -4 -4 -10z"/>
<path d="M9035 1560 c-4 -6 -3 -16 3 -22 6 -6 12 -6 17 2 4 6 3 16 -3 22 -6 6
-12 6 -17 -2z"/>
<path d="M604 1544 c3 -9 6 -18 6 -20 0 -3 4 -3 10 1 11 7 2 35 -12 35 -6 0
-7 -7 -4 -16z"/>
<path d="M951 1544 c0 -11 3 -14 6 -6 3 7 2 16 -1 19 -3 4 -6 -2 -5 -13z"/>
<path d="M9500 1551 c0 -6 5 -13 10 -16 6 -3 10 1 10 9 0 9 -4 16 -10 16 -5 0
-10 -4 -10 -9z"/>
<path d="M9940 1535 c0 -15 4 -24 10 -20 6 3 10 12 10 20 0 8 -4 17 -10 20 -6
4 -10 -5 -10 -20z"/>
<path d="M447 1544 c-14 -15 -6 -34 14 -34 14 0 19 5 17 17 -3 18 -20 27 -31
17z"/>
<path d="M8905 1539 c-4 -6 -1 -15 6 -20 21 -13 31 -11 27 8 -4 20 -24 28 -33
12z"/>
<path d="M8980 1539 c0 -5 5 -7 10 -4 6 3 10 8 10 11 0 2 -4 4 -10 4 -5 0 -10
-5 -10 -11z"/>
<path d="M7287 1533 c-4 -6 0 -16 8 -23 21 -17 28 -8 11 15 -8 11 -15 14 -19
8z"/>
<path d="M855 1520 c-4 -7 0 -19 9 -28 15 -15 16 -15 16 1 0 9 0 20 1 24 1 13
-19 15 -26 3z"/>
<path d="M1825 1520 c-3 -5 -1 -10 4 -10 6 0 11 5 11 10 0 6 -2 10 -4 10 -3 0
-8 -4 -11 -10z"/>
<path d="M1210 1510 c0 -5 7 -10 15 -10 8 0 15 5 15 10 0 6 -7 10 -15 10 -8 0
-15 -4 -15 -10z"/>
<path d="M1543 1503 c-18 -7 -16 -33 2 -33 8 0 15 9 15 20 0 11 -1 20 -2 19
-2 0 -9 -3 -15 -6z"/>
<path d="M8310 1490 c0 -5 7 -10 15 -10 8 0 15 5 15 10 0 6 -7 10 -15 10 -8 0
-15 -4 -15 -10z"/>
<path d="M166 1475 c-11 -29 -7 -36 17 -33 14 2 22 10 22 23 0 24 -30 32 -39
10z"/>
<path d="M925 1480 c3 -5 8 -10 11 -10 2 0 4 5 4 10 0 6 -5 10 -11 10 -5 0 -7
-4 -4 -10z"/>
<path d="M1420 1480 c-8 -5 -11 -12 -7 -16 4 -4 13 -2 19 4 15 15 7 24 -12 12z"/>
<path d="M2277 1483 c-12 -11 -8 -23 8 -23 8 0 15 7 15 15 0 16 -12 20 -23 8z"/>
<path d="M2170 1470 c0 -5 5 -10 10 -10 6 0 10 5 10 10 0 6 -4 10 -10 10 -5 0
-10 -4 -10 -10z"/>
<path d="M9000 1471 c0 -6 5 -13 10 -16 6 -3 10 1 10 9 0 9 -4 16 -10 16 -5 0
-10 -4 -10 -9z"/>
<path d="M5690 1460 c0 -5 5 -10 11 -10 5 0 7 5 4 10 -3 6 -8 10 -11 10 -2 0
-4 -4 -4 -10z"/>
<path d="M9532 1459 c2 -7 10 -15 17 -17 8 -3 12 1 9 9 -2 7 -10 15 -17 17 -8
3 -12 -1 -9 -9z"/>
<path d="M7610 1446 c0 -9 5 -16 10 -16 6 0 10 4 10 9 0 6 -4 13 -10 16 -5 3
-10 -1 -10 -9z"/>
<path d="M9693 1444 c-3 -8 -1 -20 6 -27 8 -8 11 -4 11 16 0 30 -7 35 -17 11z"/>
<path d="M1896 1441 c-4 -7 -5 -15 -2 -18 9 -9 19 4 14 18 -4 11 -6 11 -12 0z"/>
<path d="M884 1429 c-3 -6 -2 -15 2 -19 12 -12 38 5 30 19 -9 14 -23 14 -32 0z"/>
<path d="M260 1405 c0 -28 24 -34 34 -9 8 20 -1 34 -20 34 -8 0 -14 -10 -14
-25z"/>
<path d="M630 1410 c0 -11 7 -20 15 -20 8 0 15 9 15 20 0 11 -7 20 -15 20 -8
0 -15 -9 -15 -20z"/>
<path d="M1540 1401 c0 -12 6 -21 16 -21 9 0 14 7 12 17 -5 25 -28 28 -28 4z"/>
<path d="M7726 1412 c-3 -6 -1 -14 5 -17 15 -10 25 3 12 16 -7 7 -13 7 -17 1z"/>
<path d="M9626 1411 c-8 -12 3 -41 15 -41 12 0 12 37 0 45 -5 3 -12 1 -15 -4z"/>
<path d="M113 1394 c-3 -8 2 -23 11 -32 14 -15 18 -15 31 -1 9 9 13 23 9 32
-8 21 -43 22 -51 1z"/>
<path d="M1420 1390 c0 -5 5 -10 10 -10 6 0 10 5 10 10 0 6 -4 10 -10 10 -5 0
-10 -4 -10 -10z"/>
<path d="M3620 1389 c0 -5 5 -7 10 -4 6 3 10 8 10 11 0 2 -4 4 -10 4 -5 0 -10
-5 -10 -11z"/>
<path d="M8584 1389 c-3 -6 -1 -16 5 -22 8 -8 11 -5 11 11 0 24 -5 28 -16 11z"/>
<path d="M1022 1373 c2 -10 10 -18 18 -18 8 0 16 8 18 18 2 12 -3 17 -18 17
-15 0 -20 -5 -18 -17z"/>
<path d="M4391 1374 c0 -11 3 -14 6 -6 3 7 2 16 -1 19 -3 4 -6 -2 -5 -13z"/>
<path d="M695 1371 c-3 -5 -1 -12 5 -16 5 -3 10 1 10 9 0 18 -6 21 -15 7z"/>
<path d="M9680 1370 c0 -5 5 -10 11 -10 5 0 7 5 4 10 -3 6 -8 10 -11 10 -2 0
-4 -4 -4 -10z"/>
<path d="M9720 1340 c0 -11 7 -20 15 -20 8 0 15 9 15 20 0 11 -7 20 -15 20 -8
0 -15 -9 -15 -20z"/>
<path d="M222 1338 c-14 -14 2 -48 23 -48 10 0 15 10 15 30 0 31 -17 39 -38
18z"/>
<path d="M577 1344 c-9 -10 12 -34 30 -34 19 0 12 34 -8 38 -8 1 -18 0 -22 -4z"/>
<path d="M9040 1336 c0 -9 7 -16 16 -16 17 0 14 22 -4 28 -7 2 -12 -3 -12 -12z"/>
<path d="M3345 1330 c3 -5 8 -10 11 -10 2 0 4 5 4 10 0 6 -5 10 -11 10 -5 0
-7 -4 -4 -10z"/>
<path d="M3220 1319 c0 -5 5 -7 10 -4 6 3 10 8 10 11 0 2 -4 4 -10 4 -5 0 -10
-5 -10 -11z"/>
<path d="M9660 1305 c0 -18 4 -23 15 -19 17 7 17 7 9 28 -9 24 -24 19 -24 -9z"/>
<path d="M1082 1306 c1 -10 8 -17 13 -17 15 1 12 24 -3 29 -9 3 -13 -2 -10
-12z"/>
<path d="M3725 1310 c-3 -5 -1 -10 4 -10 6 0 11 5 11 10 0 6 -2 10 -4 10 -3 0
-8 -4 -11 -10z"/>
<path d="M4710 1309 c0 -5 5 -7 10 -4 6 3 10 8 10 11 0 2 -4 4 -10 4 -5 0 -10
-5 -10 -11z"/>
<path d="M10066 1301 c-8 -12 3 -41 15 -41 5 0 9 11 9 25 0 25 -14 34 -24 16z"/>
<path d="M688 1280 c-18 -14 -20 -21 -11 -31 9 -9 15 -8 28 5 9 9 21 16 26 16
14 0 11 17 -6 23 -7 3 -24 -2 -37 -13z"/>
<path d="M835 1291 c-6 -11 9 -23 19 -14 9 9 7 23 -3 23 -6 0 -12 -4 -16 -9z"/>
<path d="M3620 1289 c0 -5 5 -7 10 -4 6 3 10 8 10 11 0 2 -4 4 -10 4 -5 0 -10
-5 -10 -11z"/>
<path d="M9220 1285 c0 -8 7 -15 15 -15 8 0 15 7 15 15 0 8 -7 15 -15 15 -8 0
-15 -7 -15 -15z"/>
<path d="M9820 1291 c0 -6 5 -13 10 -16 6 -3 10 1 10 9 0 9 -4 16 -10 16 -5 0
-10 -4 -10 -9z"/>
<path d="M370 1270 c0 -19 11 -26 23 -14 8 8 -3 34 -14 34 -5 0 -9 -9 -9 -20z"/>
<path d="M2896 1271 c-4 -5 -2 -12 3 -15 5 -4 12 -2 15 3 4 5 2 12 -3 15 -5 4
-12 2 -15 -3z"/>
<path d="M3000 1270 c0 -5 5 -10 10 -10 6 0 10 5 10 10 0 6 -4 10 -10 10 -5 0
-10 -4 -10 -10z"/>
<path d="M8770 1261 c0 -14 5 -18 20 -14 16 4 18 8 9 19 -16 20 -29 17 -29 -5z"/>
<path d="M10010 1268 c0 -7 5 -20 10 -28 8 -12 10 -9 10 13 0 15 -4 27 -10 27
-5 0 -10 -6 -10 -12z"/>
<path d="M1120 1255 c0 -8 5 -15 10 -15 6 0 10 7 10 15 0 8 -4 15 -10 15 -5 0
-10 -7 -10 -15z"/>
<path d="M7122 1261 c4 -13 18 -16 19 -4 0 4 -5 9 -11 12 -7 2 -11 -2 -8 -8z"/>
<path d="M3350 1240 c0 -5 5 -10 11 -10 5 0 7 5 4 10 -3 6 -8 10 -11 10 -2 0
-4 -4 -4 -10z"/>
<path d="M9015 1240 c3 -5 8 -10 11 -10 2 0 4 5 4 10 0 6 -5 10 -11 10 -5 0
-7 -4 -4 -10z"/>
<path d="M9340 1241 c0 -5 6 -14 14 -20 16 -13 32 2 21 19 -8 12 -35 13 -35 1z"/>
<path d="M430 1226 c0 -24 26 -38 40 -22 6 9 9 20 5 26 -9 15 -45 12 -45 -4z"/>
<path d="M2450 1230 c0 -5 5 -10 10 -10 6 0 10 5 10 10 0 6 -4 10 -10 10 -5 0
-10 -4 -10 -10z"/>
<path d="M2570 1229 c0 -5 5 -7 10 -4 6 3 10 8 10 11 0 2 -4 4 -10 4 -5 0 -10
-5 -10 -11z"/>
<path d="M6760 1236 c0 -2 7 -7 16 -10 8 -3 12 -2 9 4 -6 10 -25 14 -25 6z"/>
<path d="M10050 1231 c0 -6 5 -13 10 -16 6 -3 10 1 10 9 0 9 -4 16 -10 16 -5
0 -10 -4 -10 -9z"/>
<path d="M246 1223 c-12 -13 -5 -54 10 -60 21 -8 37 11 30 35 -7 21 -30 35
-40 25z"/>
<path d="M7235 1220 c3 -5 10 -10 16 -10 5 0 9 5 9 10 0 6 -7 10 -16 10 -8 0
-12 -4 -9 -10z"/>
<path d="M860 1210 c0 -5 7 -10 15 -10 8 0 15 5 15 10 0 6 -7 10 -15 10 -8 0
-15 -4 -15 -10z"/>
<path d="M8880 1205 c0 -9 5 -15 11 -13 6 2 11 8 11 13 0 5 -5 11 -11 13 -6 2
-11 -4 -11 -13z"/>
<path d="M10090 1195 c0 -25 14 -34 24 -16 8 12 -3 41 -15 41 -5 0 -9 -11 -9
-25z"/>
<path d="M8306 1189 c20 -23 24 -23 24 -5 0 7 -9 16 -21 19 -20 5 -20 5 -3
-14z"/>
<path d="M9430 1190 c0 -13 7 -20 20 -20 23 0 26 10 8 28 -18 18 -28 15 -28
-8z"/>
<path d="M8810 1190 c0 -5 5 -10 10 -10 6 0 10 5 10 10 0 6 -4 10 -10 10 -5 0
-10 -4 -10 -10z"/>
<path d="M360 1175 c0 -8 5 -15 10 -15 6 0 10 7 10 15 0 8 -4 15 -10 15 -5 0
-10 -7 -10 -15z"/>
<path d="M2260 1175 c0 -8 5 -15 10 -15 6 0 10 7 10 15 0 8 -4 15 -10 15 -5 0
-10 -7 -10 -15z"/>
<path d="M8737 1184 c-13 -13 -7 -24 14 -24 11 0 19 5 17 12 -5 14 -22 21 -31
12z"/>
<path d="M9627 1183 c-11 -10 -8 -20 8 -27 10 -4 15 1 15 14 0 20 -11 26 -23
13z"/>
<path d="M10040 1171 c0 -12 5 -21 10 -21 6 0 10 6 10 14 0 8 -4 18 -10 21 -5
3 -10 -3 -10 -14z"/>
<path d="M2155 1170 c4 -6 11 -8 16 -5 14 9 11 15 -7 15 -8 0 -12 -5 -9 -10z"/>
<path d="M7106 1163 c-6 -14 -5 -15 5 -6 7 7 10 15 7 18 -3 3 -9 -2 -12 -12z"/>
<path d="M294 1155 c-4 -8 -10 -12 -15 -9 -5 3 -9 -4 -9 -16 0 -17 5 -21 28
-18 21 2 28 9 30 31 2 19 -1 27 -13 27 -8 0 -18 -7 -21 -15z"/>
<path d="M1064 1159 c-3 -6 -2 -15 4 -21 13 -13 32 -2 32 18 0 16 -26 19 -36
3z"/>
<path d="M1205 1160 c-3 -5 -1 -10 4 -10 6 0 11 5 11 10 0 6 -2 10 -4 10 -3 0
-8 -4 -11 -10z"/>
<path d="M2890 1160 c0 -5 4 -10 9 -10 6 0 13 5 16 10 3 6 -1 10 -9 10 -9 0
-16 -4 -16 -10z"/>
<path d="M410 1146 c0 -25 12 -46 26 -46 9 0 14 11 14 30 0 23 -4 30 -20 30
-11 0 -20 -6 -20 -14z"/>
<path d="M690 1136 c0 -27 15 -42 25 -26 8 13 -3 50 -16 50 -5 0 -9 -11 -9
-24z"/>
<path d="M1850 1151 c0 -6 5 -13 10 -16 6 -3 10 1 10 9 0 9 -4 16 -10 16 -5 0
-10 -4 -10 -9z"/>
<path d="M2450 1136 c0 -9 7 -16 16 -16 9 0 14 5 12 12 -6 18 -28 21 -28 4z"/>
<path d="M2575 1140 c-3 -5 -1 -10 4 -10 6 0 11 5 11 10 0 6 -2 10 -4 10 -3 0
-8 -4 -11 -10z"/>
<path d="M7575 1139 c-10 -15 3 -25 16 -12 7 7 7 13 1 17 -6 3 -14 1 -17 -5z"/>
<path d="M9544 1139 c-3 -6 -1 -16 5 -22 9 -9 14 -8 21 3 9 15 4 30 -10 30 -5
0 -12 -5 -16 -11z"/>
<path d="M200 1125 c-10 -12 -10 -18 0 -30 16 -19 60 -20 60 -1 0 44 -35 62
-60 31z"/>
<path d="M5160 1130 c0 -5 5 -10 11 -10 5 0 7 5 4 10 -3 6 -8 10 -11 10 -2 0
-4 -4 -4 -10z"/>
<path d="M7230 1131 c0 -5 7 -14 15 -21 16 -14 18 -10 9 14 -6 17 -24 22 -24
7z"/>
<path d="M8845 1130 c-8 -13 4 -32 16 -25 12 8 12 35 0 35 -6 0 -13 -4 -16
-10z"/>
<path d="M1515 1121 c-6 -11 9 -23 19 -14 9 9 7 23 -3 23 -6 0 -12 -4 -16 -9z"/>
<path d="M8180 1120 c0 -5 5 -10 10 -10 6 0 10 5 10 10 0 6 -4 10 -10 10 -5 0
-10 -4 -10 -10z"/>
<path d="M7690 1105 c0 -8 7 -15 15 -15 9 0 12 6 9 15 -4 8 -10 15 -15 15 -5
0 -9 -7 -9 -15z"/>
<path d="M8290 1101 c0 -6 5 -13 10 -16 6 -3 10 1 10 9 0 9 -4 16 -10 16 -5 0
-10 -4 -10 -9z"/>
<path d="M80 1071 c0 -38 27 -49 54 -21 21 21 21 21 2 36 -33 24 -56 18 -56
-15z"/>
<path d="M2255 1091 c-3 -5 -1 -12 5 -16 5 -3 10 1 10 9 0 18 -6 21 -15 7z"/>
<path d="M9074 1086 c-4 -10 -2 -22 4 -28 8 -8 13 -7 18 6 4 10 2 22 -4 28 -8
8 -13 7 -18 -6z"/>
<path d="M9660 1087 c0 -19 10 -27 26 -20 11 4 12 9 3 19 -15 18 -29 18 -29 1z"/>
<path d="M282 1059 c2 -18 9 -34 16 -37 10 -3 13 5 10 29 -2 18 -9 34 -16 37
-10 3 -13 -5 -10 -29z"/>
<path d="M737 1084 c-13 -13 -7 -42 8 -48 22 -8 31 22 13 40 -8 8 -17 11 -21
8z"/>
<path d="M7630 1080 c0 -5 5 -10 11 -10 5 0 7 5 4 10 -3 6 -8 10 -11 10 -2 0
-4 -4 -4 -10z"/>
<path d="M9824 1076 c-7 -19 3 -36 22 -36 10 0 14 8 12 22 -4 26 -26 36 -34
14z"/>
<path d="M650 1065 c-16 -19 -4 -35 26 -35 26 0 32 18 12 38 -16 16 -23 15
-38 -3z"/>
<path d="M2160 1070 c0 -5 5 -10 10 -10 6 0 10 5 10 10 0 6 -4 10 -10 10 -5 0
-10 -4 -10 -10z"/>
<path d="M1856 1063 c-11 -11 -6 -23 9 -23 8 0 15 4 15 9 0 13 -16 22 -24 14z"/>
<path d="M1104 1049 c-8 -14 11 -33 25 -25 11 7 4 36 -9 36 -5 0 -12 -5 -16
-11z"/>
<path d="M7570 1050 c0 -5 5 -10 11 -10 5 0 7 5 4 10 -3 6 -8 10 -11 10 -2 0
-4 -4 -4 -10z"/>
<path d="M8520 1040 c0 -11 4 -20 9 -20 11 0 22 26 14 34 -12 12 -23 5 -23
-14z"/>
<path d="M9580 1039 c0 -24 23 -21 28 4 2 10 -3 17 -12 17 -10 0 -16 -9 -16
-21z"/>
<path d="M790 1040 c0 -5 5 -10 11 -10 5 0 7 5 4 10 -3 6 -8 10 -11 10 -2 0
-4 -4 -4 -10z"/>
<path d="M562 1023 c5 -26 38 -29 38 -4 0 15 -6 21 -21 21 -14 0 -19 -5 -17
-17z"/>
<path d="M1506 1033 c-11 -11 -6 -23 9 -23 8 0 15 4 15 9 0 13 -16 22 -24 14z"/>
<path d="M9750 1021 c0 -10 7 -21 15 -25 11 -4 15 1 15 19 0 16 -6 25 -15 25
-8 0 -15 -9 -15 -19z"/>
<path d="M450 1005 c0 -29 28 -45 40 -24 11 17 -6 49 -25 49 -9 0 -15 -10 -15
-25z"/>
<path d="M8010 1015 c0 -17 2 -18 24 -9 23 9 20 24 -4 24 -11 0 -20 -7 -20
-15z"/>
<path d="M35 989 l-35 -31 0 -479 0 -479 400 0 c232 0 400 4 400 9 0 5 9 7 20
4 24 -6 35 16 26 52 -5 19 -13 25 -33 25 -35 0 -75 44 -67 74 4 17 -2 29 -26
49 -37 31 -62 105 -54 158 6 33 3 37 -30 57 l-36 21 0 -20 c0 -12 -14 -34 -31
-50 l-31 -29 6 25 c5 18 0 31 -14 45 -30 30 -45 20 -48 -31 -2 -24 -7 -48 -13
-53 -5 -6 -9 -23 -9 -40 l0 -30 -20 22 c-12 12 -27 22 -35 22 -8 0 -15 6 -15
13 0 9 -2 9 -8 0 -5 -8 -12 -3 -20 17 -15 32 -42 47 -54 28 -4 -7 -8 -32 -8
-55 0 -24 -5 -43 -11 -43 -6 0 -19 -10 -29 -22 -15 -19 -21 -21 -41 -11 -13 6
-32 14 -41 17 -10 3 -18 14 -18 26 0 26 -29 60 -46 53 -8 -3 -14 0 -14 7 0 6
-7 19 -16 28 -14 13 -14 17 -3 21 21 6 38 33 39 57 0 20 -20 37 -45 39 -25 2
-50 32 -52 63 -4 109 -3 163 2 173 4 5 19 8 34 4 20 -4 32 0 46 15 18 20 18
21 -5 45 -22 23 -25 24 -46 10 -13 -8 -28 -15 -34 -15 -11 0 -7 141 5 172 6
16 9 16 22 2 24 -23 48 -13 51 22 4 45 -20 50 -63 13z m489 -731 c-2 -3 0 -8
5 -10 4 -1 12 -13 15 -25 6 -18 3 -23 -9 -23 -15 0 -15 -1 -1 -16 21 -20 20
-23 -4 -17 -17 4 -20 0 -20 -23 0 -22 -3 -25 -12 -16 -10 10 -10 17 0 32 6 10
8 22 3 25 -5 3 -12 -1 -15 -7 -3 -7 -3 -3 0 9 3 13 1 31 -5 40 -8 14 -11 15
-11 3 0 -11 -3 -10 -11 4 -9 14 -8 20 2 27 15 9 69 7 63 -3z m103 -80 c-3 -8
-6 -5 -6 6 -1 11 2 17 5 13 3 -3 4 -12 1 -19z"/>
<path d="M1040 1006 c0 -9 7 -16 16 -16 9 0 14 5 12 12 -6 18 -28 21 -28 4z"/>
<path d="M9005 1009 c-4 -6 -5 -12 -2 -15 2 -3 7 2 10 11 7 17 1 20 -8 4z"/>
<path d="M9061 1004 c0 -11 3 -14 6 -6 3 7 2 16 -1 19 -3 4 -6 -2 -5 -13z"/>
<path d="M720 1003 c0 -4 5 -15 10 -23 8 -13 10 -13 10 2 0 9 -4 20 -10 23 -5
3 -10 3 -10 -2z"/>
<path d="M9103 994 c-7 -19 2 -28 22 -21 19 8 19 23 0 31 -9 3 -18 -1 -22 -10z"/>
<path d="M9810 995 c0 -8 5 -15 10 -15 6 0 10 7 10 15 0 8 -4 15 -10 15 -5 0
-10 -7 -10 -15z"/>
<path d="M8140 985 c0 -8 5 -15 10 -15 6 0 10 7 10 15 0 8 -4 15 -10 15 -5 0
-10 -7 -10 -15z"/>
<path d="M9858 983 c-6 -25 1 -43 17 -43 7 0 15 6 18 13 5 14 -10 47 -22 47
-5 0 -11 -8 -13 -17z"/>
<path d="M1122 968 c-13 -13 -16 -38 -4 -37 4 0 15 4 25 7 15 6 16 10 5 25
-11 14 -16 15 -26 5z"/>
<path d="M8454 968 c-8 -12 24 -40 37 -32 5 3 9 14 9 25 0 21 -34 27 -46 7z"/>
<path d="M816 955 c4 -8 10 -12 15 -9 11 6 2 24 -11 24 -5 0 -7 -7 -4 -15z"/>
<path d="M9257 963 c-10 -3 -17 -11 -15 -19 4 -22 21 -19 30 5 4 12 6 20 5 20
-1 -1 -10 -3 -20 -6z"/>
<path d="M306 951 c-10 -16 5 -61 20 -61 8 0 14 10 14 24 0 27 -24 53 -34 37z"/>
<path d="M530 944 c0 -14 -3 -14 -15 -4 -11 9 -19 10 -27 2 -15 -15 -1 -32 25
-31 12 0 31 -1 42 -3 16 -2 20 3 20 22 0 18 -6 26 -22 28 -16 2 -23 -2 -23
-14z"/>
<path d="M9784 945 c-8 -21 3 -47 19 -43 6 3 13 14 15 25 4 24 -26 40 -34 18z"/>
<path d="M434 936 c-9 -23 0 -51 17 -54 21 -4 32 24 19 49 -13 23 -28 25 -36
5z"/>
<path d="M8005 940 c-4 -7 -2 -16 6 -21 18 -11 23 -4 11 17 -7 12 -11 13 -17
4z"/>
<path d="M9024 935 c-9 -22 5 -38 22 -24 18 15 18 25 -1 33 -9 3 -18 -1 -21
-9z"/>
<path d="M10155 938 c-10 -26 2 -55 17 -40 8 8 8 18 1 34 -10 21 -12 21 -18 6z"/>
<path d="M3350 924 c0 -8 5 -12 10 -9 6 4 8 11 5 16 -9 14 -15 11 -15 -7z"/>
<path d="M6700 932 c0 -12 19 -26 26 -19 2 2 -2 10 -11 17 -9 8 -15 8 -15 2z"/>
<path d="M3245 920 c-3 -5 -1 -10 4 -10 6 0 11 5 11 10 0 6 -2 10 -4 10 -3 0
-8 -4 -11 -10z"/>
<path d="M9519 914 c-11 -14 -10 -18 5 -30 24 -17 36 -10 36 22 0 28 -21 32
-41 8z"/>
<path d="M8607 914 c-4 -4 -7 -15 -7 -25 0 -12 6 -16 20 -12 12 3 20 12 18 21
-3 17 -21 26 -31 16z"/>
<path d="M8846 912 c-3 -6 -1 -14 5 -17 15 -10 25 3 12 16 -7 7 -13 7 -17 1z"/>
<path d="M10100 912 c0 -19 12 -42 22 -42 14 0 5 43 -9 48 -7 2 -13 -1 -13 -6z"/>
<path d="M374 902 c-23 -14 -25 -47 -4 -60 18 -11 22 -9 32 13 9 21 9 29 -3
40 -8 8 -19 11 -25 7z"/>
<path d="M1235 899 c-10 -15 3 -25 16 -12 7 7 7 13 1 17 -6 3 -14 1 -17 -5z"/>
<path d="M4650 895 c0 -8 5 -15 10 -15 6 0 10 7 10 15 0 8 -4 15 -10 15 -5 0
-10 -7 -10 -15z"/>
<path d="M3635 890 c-3 -5 -1 -10 4 -10 6 0 11 5 11 10 0 6 -2 10 -4 10 -3 0
-8 -4 -11 -10z"/>
<path d="M8125 890 c3 -5 8 -10 11 -10 2 0 4 5 4 10 0 6 -5 10 -11 10 -5 0 -7
-4 -4 -10z"/>
<path d="M87 883 c-10 -10 -8 -61 2 -67 14 -9 61 12 61 27 0 27 -47 57 -63 40z"/>
<path d="M505 880 c-8 -13 4 -50 16 -50 5 0 9 14 9 30 0 30 -13 40 -25 20z"/>
<path d="M302 871 c-16 -10 -12 -63 5 -69 15 -4 35 42 27 63 -7 17 -13 18 -32
6z"/>
<path d="M4226 872 c-3 -6 -1 -14 5 -17 15 -10 25 3 12 16 -7 7 -13 7 -17 1z"/>
<path d="M9280 855 c0 -30 15 -33 30 -6 14 27 13 31 -10 31 -15 0 -20 -7 -20
-25z"/>
<path d="M9424 874 c-18 -7 -4 -44 16 -44 17 0 34 33 22 44 -6 7 -22 7 -38 0z"/>
<path d="M10140 865 c0 -8 4 -15 8 -15 5 0 14 -12 20 -26 7 -14 17 -22 22 -19
18 11 10 42 -15 59 -30 20 -35 20 -35 1z"/>
<path d="M976 861 c-4 -5 -2 -12 3 -15 5 -4 12 -2 15 3 4 5 2 12 -3 15 -5 4
-12 2 -15 -3z"/>
<path d="M750 841 c0 -22 16 -36 24 -22 8 12 -3 41 -15 41 -5 0 -9 -9 -9 -19z"/>
<path d="M4330 850 c0 -5 5 -10 10 -10 6 0 10 5 10 10 0 6 -4 10 -10 10 -5 0
-10 -4 -10 -10z"/>
<path d="M8720 844 c0 -8 5 -12 10 -9 6 4 8 11 5 16 -9 14 -15 11 -15 -7z"/>
<path d="M2581 834 c0 -11 3 -14 6 -6 3 7 2 16 -1 19 -3 4 -6 -2 -5 -13z"/>
<path d="M9497 843 c-12 -11 -8 -23 8 -23 8 0 15 7 15 15 0 16 -12 20 -23 8z"/>
<path d="M2450 824 c0 -17 22 -14 28 4 2 7 -3 12 -12 12 -9 0 -16 -7 -16 -16z"/>
<path d="M3350 830 c0 -5 5 -10 11 -10 5 0 7 5 4 10 -3 6 -8 10 -11 10 -2 0
-4 -4 -4 -10z"/>
<path d="M8640 830 c0 -5 7 -10 15 -10 8 0 15 5 15 10 0 6 -7 10 -15 10 -8 0
-15 -4 -15 -10z"/>
<path d="M9557 834 c-12 -12 -8 -54 6 -54 27 0 42 19 31 37 -12 20 -27 26 -37
17z"/>
<path d="M191 816 c-26 -31 14 -71 45 -45 21 17 14 53 -12 57 -11 2 -26 -4
-33 -12z"/>
<path d="M580 806 c0 -33 22 -49 44 -33 15 11 15 14 1 35 -21 29 -45 29 -45
-2z"/>
<path d="M8570 816 c0 -18 17 -29 30 -21 8 5 7 11 -1 21 -15 18 -29 18 -29 0z"/>
<path d="M10120 816 c0 -21 11 -46 20 -46 12 0 20 28 14 45 -8 19 -34 20 -34
1z"/>
<path d="M344 806 c-7 -19 13 -56 31 -56 16 0 18 12 9 48 -7 25 -32 30 -40 8z"/>
<path d="M1250 805 c0 -8 7 -15 15 -15 8 0 15 7 15 15 0 8 -7 15 -15 15 -8 0
-15 -7 -15 -15z"/>
<path d="M3235 810 c-3 -5 -2 -10 4 -10 5 0 13 5 16 10 3 6 2 10 -4 10 -5 0
-13 -4 -16 -10z"/>
<path d="M4646 812 c-3 -6 -1 -14 5 -17 15 -10 25 3 12 16 -7 7 -13 7 -17 1z"/>
<path d="M9754 805 c-3 -8 -3 -19 1 -25 11 -18 25 -11 25 15 0 27 -17 34 -26
10z"/>
<path d="M133 803 c-18 -6 -16 -28 2 -43 9 -7 13 -21 10 -31 -9 -28 13 -61 38
-57 32 4 38 67 8 75 -12 3 -21 13 -21 23 0 21 -20 39 -37 33z"/>
<path d="M830 785 c0 -22 4 -26 23 -23 14 2 22 10 22 23 0 13 -8 21 -22 23
-19 3 -23 -1 -23 -23z"/>
<path d="M5100 800 c0 -5 5 -10 11 -10 5 0 7 5 4 10 -3 6 -8 10 -11 10 -2 0
-4 -4 -4 -10z"/>
<path d="M10230 778 c0 -30 15 -46 23 -24 3 8 -1 22 -8 33 -13 17 -14 16 -15
-9z"/>
<path d="M2515 780 c3 -5 8 -10 11 -10 2 0 4 5 4 10 0 6 -5 10 -11 10 -5 0 -7
-4 -4 -10z"/>
<path d="M8995 780 c-3 -5 -1 -10 4 -10 6 0 11 5 11 10 0 6 -2 10 -4 10 -3 0
-8 -4 -11 -10z"/>
<path d="M9450 760 c0 -33 11 -38 30 -15 15 18 6 45 -15 45 -10 0 -15 -10 -15
-30z"/>
<path d="M750 770 c0 -5 5 -10 11 -10 5 0 7 5 4 10 -3 6 -8 10 -11 10 -2 0 -4
-4 -4 -10z"/>
<path d="M8680 765 c0 -8 7 -15 15 -15 8 0 15 7 15 15 0 8 -7 15 -15 15 -8 0
-15 -7 -15 -15z"/>
<path d="M1740 749 c0 -24 23 -21 28 4 2 10 -3 17 -12 17 -10 0 -16 -9 -16
-21z"/>
<path d="M1850 755 c0 -8 7 -15 15 -15 8 0 15 7 15 15 0 8 -7 15 -15 15 -8 0
-15 -7 -15 -15z"/>
<path d="M5235 760 c3 -5 8 -10 11 -10 2 0 4 5 4 10 0 6 -5 10 -11 10 -5 0 -7
-4 -4 -10z"/>
<path d="M9660 756 c0 -17 24 -38 33 -29 15 15 6 43 -13 43 -11 0 -20 -6 -20
-14z"/>
<path d="M644 746 c-15 -11 -16 -17 -7 -27 16 -16 43 -4 43 21 0 24 -9 25 -36
6z"/>
<path d="M1390 730 c0 -11 4 -20 9 -20 11 0 22 26 14 34 -12 12 -23 5 -23 -14z"/>
<path d="M1487 744 c-9 -10 4 -34 19 -34 8 0 14 9 14 20 0 19 -19 27 -33 14z"/>
<path d="M2457 744 c-4 -4 -7 -11 -7 -15 0 -10 24 -5 28 6 4 12 -12 18 -21 9z"/>
<path d="M2572 739 c2 -6 8 -10 13 -10 5 0 11 4 13 10 2 6 -4 11 -13 11 -9 0
-15 -5 -13 -11z"/>
<path d="M7520 740 c0 -5 7 -10 15 -10 8 0 15 5 15 10 0 6 -7 10 -15 10 -8 0
-15 -4 -15 -10z"/>
<path d="M560 711 c0 -16 -6 -31 -15 -35 -18 -7 -20 -37 -3 -54 20 -20 28 -14
28 24 0 19 4 33 9 30 4 -3 17 1 27 8 18 14 18 15 0 35 -27 30 -46 27 -46 -8z"/>
<path d="M8432 729 c2 -6 8 -10 13 -10 5 0 11 4 13 10 2 6 -4 11 -13 11 -9 0
-15 -5 -13 -11z"/>
<path d="M9211 721 c-11 -20 -5 -31 16 -31 7 0 13 11 13 25 0 29 -15 33 -29 6z"/>
<path d="M9777 711 c-6 -24 0 -31 25 -31 14 0 19 6 16 22 -4 29 -34 36 -41 9z"/>
<path d="M800 703 c0 -22 18 -43 38 -43 9 0 12 9 10 28 -4 33 -48 47 -48 15z"/>
<path d="M1171 711 c-15 -10 -8 -41 8 -41 13 0 32 35 24 44 -8 8 -15 7 -32 -3z"/>
<path d="M1800 710 c0 -5 5 -10 10 -10 6 0 10 5 10 10 0 6 -4 10 -10 10 -5 0
-10 -4 -10 -10z"/>
<path d="M7636 711 c-4 -7 -5 -15 -2 -18 9 -9 19 4 14 18 -4 11 -6 11 -12 0z"/>
<path d="M8890 709 c0 -5 5 -7 10 -4 6 3 10 8 10 11 0 2 -4 4 -10 4 -5 0 -10
-5 -10 -11z"/>
<path d="M5100 695 c7 -9 15 -13 17 -11 7 7 -7 26 -19 26 -6 0 -6 -6 2 -15z"/>
<path d="M9944 696 c-4 -10 -2 -22 4 -28 8 -8 13 -7 18 6 4 10 2 22 -4 28 -8
8 -13 7 -18 -6z"/>
<path d="M10250 680 c0 -16 4 -30 9 -30 13 0 21 27 15 45 -10 25 -24 17 -24
-15z"/>
<path d="M374 685 c-4 -9 -4 -26 -2 -40 3 -14 -1 -30 -8 -36 -8 -6 -14 -18
-14 -25 0 -8 -10 -14 -24 -14 -29 0 -42 -30 -26 -60 14 -26 36 -26 50 1 7 11
17 18 24 16 7 -3 19 -1 26 3 9 6 19 -1 30 -23 26 -48 50 -48 50 0 0 22 -5 44
-12 51 -9 9 -8 12 5 12 18 0 33 41 22 59 -8 14 -45 14 -45 1 0 -5 -6 -10 -14
-10 -10 0 -13 8 -11 22 4 21 -19 58 -37 58 -5 0 -11 -7 -14 -15z"/>
<path d="M1446 691 c-4 -7 -5 -15 -2 -18 9 -9 19 4 14 18 -4 11 -6 11 -12 0z"/>
<path d="M9697 683 c-11 -10 -8 -41 4 -49 16 -9 43 21 36 40 -7 16 -28 21 -40
9z"/>
<path d="M1051 671 c-17 -11 -7 -41 13 -41 17 0 39 34 29 44 -9 8 -25 7 -42
-3z"/>
<path d="M1746 665 c-9 -24 -8 -25 15 -25 14 0 19 5 17 17 -4 23 -24 27 -32 8z"/>
<path d="M1854 669 c-6 -10 12 -29 29 -29 9 0 9 4 1 24 -7 19 -20 21 -30 5z"/>
<path d="M9113 672 c-26 -4 -29 -12 -11 -30 17 -17 35 -15 42 5 8 21 -3 30
-31 25z"/>
<path d="M1501 656 c-14 -17 -7 -36 15 -36 15 0 18 18 5 38 -6 10 -10 10 -20
-2z"/>
<path d="M9860 661 c0 -5 8 -19 18 -31 22 -27 42 -19 42 16 0 20 -5 24 -30 24
-16 0 -30 -4 -30 -9z"/>
<path d="M1390 640 c-9 -17 -8 -20 10 -20 11 0 20 6 20 14 0 24 -18 28 -30 6z"/>
<path d="M1126 641 c-4 -5 -2 -12 3 -15 5 -4 12 -2 15 3 4 5 2 12 -3 15 -5 4
-12 2 -15 -3z"/>
<path d="M5630 640 c0 -5 5 -10 11 -10 5 0 7 5 4 10 -3 6 -8 10 -11 10 -2 0
-4 -4 -4 -10z"/>
<path d="M8720 635 c0 -8 5 -15 10 -15 6 0 10 7 10 15 0 8 -4 15 -10 15 -5 0
-10 -7 -10 -15z"/>
<path d="M8927 643 c-4 -3 -7 -15 -7 -25 0 -26 24 -17 28 10 3 21 -8 29 -21
15z"/>
<path d="M9230 630 c-14 -25 -5 -41 20 -37 27 4 33 12 25 36 -8 27 -31 27 -45
1z"/>
<path d="M9391 636 c-9 -10 -8 -16 3 -26 19 -15 36 -5 36 21 0 22 -22 25 -39
5z"/>
<path d="M1181 621 c-12 -22 -5 -31 26 -31 24 0 27 7 17 34 -8 22 -31 20 -43
-3z"/>
<path d="M7960 615 c0 -9 5 -15 11 -13 6 2 11 8 11 13 0 5 -5 11 -11 13 -6 2
-11 -4 -11 -13z"/>
<path d="M9940 614 c0 -8 5 -12 10 -9 6 3 10 10 10 16 0 5 -4 9 -10 9 -5 0
-10 -7 -10 -16z"/>
<path d="M207 613 c-12 -12 -7 -50 8 -63 35 -29 74 20 45 56 -13 15 -42 19
-53 7z"/>
<path d="M5762 609 c2 -6 8 -10 13 -10 5 0 11 4 13 10 2 6 -4 11 -13 11 -9 0
-15 -5 -13 -11z"/>
<path d="M9960 603 c0 -5 4 -15 10 -23 11 -18 25 -7 17 15 -6 15 -27 21 -27 8z"/>
<path d="M10140 596 c0 -7 7 -19 15 -26 16 -13 20 -3 9 24 -8 20 -24 21 -24 2z"/>
<path d="M860 586 c0 -32 13 -46 41 -46 22 0 29 5 29 20 0 20 -27 40 -54 40
-9 0 -16 -6 -16 -14z"/>
<path d="M1070 585 c-23 -27 9 -47 35 -21 10 10 11 16 2 25 -15 15 -22 14 -37
-4z"/>
<path d="M10237 593 c-4 -3 -7 -20 -7 -37 -1 -26 -2 -28 -11 -13 -5 9 -17 17
-26 17 -13 0 -14 -7 -8 -37 10 -50 16 -135 10 -151 -8 -21 -38 2 -50 39 -6 18
-16 34 -22 36 -16 6 -25 -42 -13 -71 6 -17 6 -42 -1 -73 -6 -27 -11 -58 -11
-69 0 -13 -6 -21 -14 -20 -21 3 -26 12 -31 58 -7 59 -17 66 -49 35 -24 -24
-25 -30 -15 -58 14 -42 -4 -159 -25 -159 -8 0 -14 -4 -14 -10 0 -5 -21 -20
-47 -32 -25 -13 -46 -27 -45 -33 1 -6 83 -11 217 -13 l215 -2 0 253 c0 154 -4
257 -10 263 -5 5 -11 22 -12 38 -3 28 -20 51 -31 39z"/>
<path d="M8060 575 c0 -8 5 -15 10 -15 6 0 10 7 10 15 0 8 -4 15 -10 15 -5 0
-10 -7 -10 -15z"/>
<path d="M9137 584 c-9 -10 4 -34 19 -34 8 0 14 9 14 20 0 19 -19 27 -33 14z"/>
<path d="M9910 556 c0 -40 12 -53 30 -31 16 19 9 59 -12 63 -14 3 -18 -4 -18
-32z"/>
<path d="M1585 551 c-3 -5 -1 -12 5 -16 5 -3 10 1 10 9 0 18 -6 21 -15 7z"/>
<path d="M1660 544 c0 -8 5 -12 10 -9 6 3 10 10 10 16 0 5 -4 9 -10 9 -5 0
-10 -7 -10 -16z"/>
<path d="M8690 550 c0 -5 5 -10 10 -10 6 0 10 5 10 10 0 6 -4 10 -10 10 -5 0
-10 -4 -10 -10z"/>
<path d="M9420 545 c-9 -11 -10 -19 -3 -26 17 -17 48 -6 48 16 0 25 -28 31
-45 10z"/>
<path d="M9641 542 c-19 -15 -20 -19 -8 -36 19 -25 47 -14 47 18 0 33 -13 40
-39 18z"/>
<path d="M4200 534 c0 -8 5 -12 10 -9 6 3 10 10 10 16 0 5 -4 9 -10 9 -5 0
-10 -7 -10 -16z"/>
<path d="M5635 540 c3 -5 8 -10 11 -10 2 0 4 5 4 10 0 6 -5 10 -11 10 -5 0 -7
-4 -4 -10z"/>
<path d="M177 522 c-21 -23 -22 -58 -1 -66 52 -20 87 15 58 59 -19 30 -35 32
-57 7z"/>
<path d="M4310 525 c0 -8 5 -15 10 -15 6 0 10 7 10 15 0 8 -4 15 -10 15 -5 0
-10 -7 -10 -15z"/>
<path d="M10020 524 c0 -8 5 -12 10 -9 6 4 8 11 5 16 -9 14 -15 11 -15 -7z"/>
<path d="M255 520 c3 -5 8 -10 11 -10 2 0 4 5 4 10 0 6 -5 10 -11 10 -5 0 -7
-4 -4 -10z"/>
<path d="M861 516 c-18 -22 3 -56 34 -56 31 0 33 26 3 51 -25 23 -23 22 -37 5z"/>
<path d="M3325 521 c-3 -5 -1 -12 5 -16 5 -3 10 1 10 9 0 18 -6 21 -15 7z"/>
<path d="M3240 510 c0 -5 5 -10 10 -10 6 0 10 5 10 10 0 6 -4 10 -10 10 -5 0
-10 -4 -10 -10z"/>
<path d="M7955 510 c4 -6 11 -8 16 -5 14 9 11 15 -7 15 -8 0 -12 -5 -9 -10z"/>
<path d="M6260 500 c0 -5 7 -10 15 -10 8 0 15 5 15 10 0 6 -7 10 -15 10 -8 0
-15 -4 -15 -10z"/>
<path d="M8845 489 c-8 -25 -1 -34 20 -26 19 8 20 47 1 47 -8 0 -18 -9 -21
-21z"/>
<path d="M9316 494 c-3 -9 -3 -20 0 -25 8 -13 34 9 34 27 0 19 -26 18 -34 -2z"/>
<path d="M9538 503 c-23 -6 -23 -26 1 -47 19 -17 20 -17 36 8 25 37 11 52 -37
39z"/>
<path d="M781 486 c-9 -11 -8 -18 4 -30 19 -18 18 -18 39 -10 21 8 21 40 0 48
-23 9 -30 8 -43 -8z"/>
<path d="M278 479 c-25 -14 -22 -42 8 -70 25 -23 26 -23 40 -5 15 21 9 66 -10
78 -14 10 -17 9 -38 -3z"/>
<path d="M4255 480 c-3 -5 -1 -10 4 -10 6 0 11 5 11 10 0 6 -2 10 -4 10 -3 0
-8 -4 -11 -10z"/>
<path d="M8550 481 c0 -13 26 -32 33 -24 14 13 6 33 -13 33 -11 0 -20 -4 -20
-9z"/>
<path d="M10070 465 c0 -16 6 -25 15 -25 16 0 19 9 9 34 -9 25 -24 19 -24 -9z"/>
<path d="M998 473 c-24 -6 -30 -31 -9 -42 21 -12 41 3 41 31 0 18 -2 19 -32
11z"/>
<path d="M1950 470 c0 -5 5 -10 11 -10 5 0 7 5 4 10 -3 6 -8 10 -11 10 -2 0
-4 -4 -4 -10z"/>
<path d="M2910 470 c-13 -9 -13 -11 0 -20 10 -6 16 -6 18 0 7 20 -3 30 -18 20z"/>
<path d="M9603 464 c-8 -20 8 -36 26 -25 15 10 8 41 -9 41 -6 0 -13 -7 -17
-16z"/>
<path d="M1660 455 c0 -8 5 -15 10 -15 6 0 10 7 10 15 0 8 -4 15 -10 15 -5 0
-10 -7 -10 -15z"/>
<path d="M3850 461 c0 -5 5 -13 10 -16 6 -3 10 -2 10 4 0 5 -4 13 -10 16 -5 3
-10 2 -10 -4z"/>
<path d="M4700 461 c0 -5 5 -13 10 -16 6 -3 10 -2 10 4 0 5 -4 13 -10 16 -5 3
-10 2 -10 -4z"/>
<path d="M8490 460 c0 -5 5 -10 10 -10 6 0 10 5 10 10 0 6 -4 10 -10 10 -5 0
-10 -4 -10 -10z"/>
<path d="M8753 455 c-3 -9 -3 -18 0 -21 9 -9 27 6 27 22 0 19 -19 18 -27 -1z"/>
<path d="M9660 450 c-15 -28 -6 -50 20 -50 24 0 37 26 23 48 -15 25 -31 25
-43 2z"/>
<path d="M9081 443 c-10 -11 -10 -18 -2 -26 8 -8 11 -8 11 2 0 7 5 9 10 6 6
-3 10 1 10 9 0 22 -13 26 -29 9z"/>
<path d="M9870 441 c-13 -25 -13 -27 6 -45 21 -22 41 -20 49 4 16 49 -31 84
-55 41z"/>
<path d="M10037 453 c-4 -3 -7 -15 -7 -25 0 -26 24 -17 28 10 3 21 -8 29 -21
15z"/>
<path d="M4185 439 c-10 -15 1 -23 20 -15 9 3 13 10 10 16 -8 13 -22 13 -30
-1z"/>
<path d="M2450 419 c0 -24 23 -21 28 4 2 10 -3 17 -12 17 -10 0 -16 -9 -16
-21z"/>
<path d="M2560 425 c0 -8 5 -15 10 -15 6 0 10 7 10 15 0 8 -4 15 -10 15 -5 0
-10 -7 -10 -15z"/>
<path d="M8806 431 c-4 -5 -2 -12 3 -15 5 -4 12 -2 15 3 4 5 2 12 -3 15 -5 4
-12 2 -15 -3z"/>
<path d="M4310 420 c0 -5 5 -10 10 -10 6 0 10 5 10 10 0 6 -4 10 -10 10 -5 0
-10 -4 -10 -10z"/>
<path d="M6630 416 c0 -9 5 -16 10 -16 6 0 10 4 10 9 0 6 -4 13 -10 16 -5 3
-10 -1 -10 -9z"/>
<path d="M761 411 c-16 -10 -7 -47 14 -54 20 -8 41 21 29 41 -13 20 -25 24
-43 13z"/>
<path d="M2126 413 c-9 -9 -7 -33 3 -33 12 0 22 28 12 34 -5 3 -11 3 -15 -1z"/>
<path d="M6240 416 c0 -2 7 -9 15 -16 12 -10 15 -10 15 4 0 9 -7 16 -15 16 -8
0 -15 -2 -15 -4z"/>
<path d="M8861 402 c-12 -23 -5 -32 26 -32 20 0 24 5 21 22 -4 29 -34 35 -47
10z"/>
<path d="M9555 401 c-7 -22 3 -51 18 -51 6 0 19 7 28 16 14 13 16 21 8 35 -13
24 -46 24 -54 0z"/>
<path d="M8371 394 c0 -11 3 -14 6 -6 3 7 2 16 -1 19 -3 4 -6 -2 -5 -13z"/>
<path d="M8528 403 c-24 -6 -23 -20 2 -33 16 -9 22 -8 26 5 8 20 -5 33 -28 28z"/>
<path d="M9763 394 c-8 -22 10 -49 32 -49 10 0 22 7 28 16 15 24 1 49 -28 49
-15 0 -28 -7 -32 -16z"/>
<path d="M8980 384 c-9 -10 -10 -18 -3 -25 8 -8 14 -5 22 9 13 25 -2 38 -19
16z"/>
<path d="M2510 380 c0 -5 5 -10 11 -10 5 0 7 5 4 10 -3 6 -8 10 -11 10 -2 0
-4 -4 -4 -10z"/>
<path d="M5035 379 c-10 -15 3 -25 16 -12 7 7 7 13 1 17 -6 3 -14 1 -17 -5z"/>
<path d="M6760 375 c0 -8 5 -15 10 -15 6 0 10 7 10 15 0 8 -4 15 -10 15 -5 0
-10 -7 -10 -15z"/>
<path d="M1756 372 c-8 -13 11 -35 23 -28 16 10 14 36 -3 36 -8 0 -17 -4 -20
-8z"/>
<path d="M1860 359 c0 -18 2 -19 15 -9 8 7 15 16 15 21 0 5 -7 9 -15 9 -9 0
-15 -9 -15 -21z"/>
<path d="M8760 360 c0 -23 25 -27 33 -6 7 16 -1 26 -20 26 -7 0 -13 -9 -13
-20z"/>
<path d="M930 351 c0 -12 5 -21 10 -21 6 0 10 6 10 14 0 8 -4 18 -10 21 -5 3
-10 -3 -10 -14z"/>
<path d="M1507 363 c-8 -7 11 -33 24 -33 5 0 9 9 9 20 0 19 -20 27 -33 13z"/>
<path d="M2920 360 c0 -5 5 -10 11 -10 5 0 7 5 4 10 -3 6 -8 10 -11 10 -2 0
-4 -4 -4 -10z"/>
<path d="M9904 345 c-9 -36 2 -57 28 -53 26 3 36 41 18 64 -19 22 -39 17 -46
-11z"/>
<path d="M1392 343 c2 -10 12 -18 23 -18 11 0 21 8 23 18 3 13 -3 17 -23 17
-20 0 -26 -4 -23 -17z"/>
<path d="M6685 350 c-3 -5 1 -10 10 -10 9 0 13 5 10 10 -3 6 -8 10 -10 10 -2
0 -7 -4 -10 -10z"/>
<path d="M9260 350 c0 -5 5 -10 10 -10 6 0 10 5 10 10 0 6 -4 10 -10 10 -5 0
-10 -4 -10 -10z"/>
<path d="M1147 341 c-16 -6 -16 -8 -1 -29 13 -18 19 -21 30 -11 29 24 9 53
-29 40z"/>
<path d="M1240 336 c0 -8 5 -18 10 -21 6 -3 10 3 10 14 0 12 -4 21 -10 21 -5
0 -10 -6 -10 -14z"/>
<path d="M2456 334 c-10 -25 -7 -34 9 -28 17 7 20 30 6 38 -5 3 -12 -1 -15
-10z"/>
<path d="M2550 330 c0 -5 7 -10 15 -10 8 0 15 5 15 10 0 6 -7 10 -15 10 -8 0
-15 -4 -15 -10z"/>
<path d="M6610 315 c0 -8 7 -15 15 -15 8 0 15 7 15 15 0 8 -7 15 -15 15 -8 0
-15 -7 -15 -15z"/>
<path d="M1466 313 c-11 -11 -6 -23 9 -23 8 0 15 4 15 9 0 13 -16 22 -24 14z"/>
<path d="M1815 310 c3 -5 8 -10 11 -10 2 0 4 5 4 10 0 6 -5 10 -11 10 -5 0 -7
-4 -4 -10z"/>
<path d="M5095 310 c3 -5 8 -10 11 -10 2 0 4 5 4 10 0 6 -5 10 -11 10 -5 0 -7
-4 -4 -10z"/>
<path d="M8995 300 c-4 -12 -5 -24 -2 -27 9 -9 48 18 44 30 -7 21 -35 19 -42
-3z"/>
<path d="M9797 314 c-11 -11 -8 -62 4 -70 6 -3 22 0 35 7 34 18 30 63 -6 67
-14 2 -29 0 -33 -4z"/>
<path d="M2112 298 c3 -7 12 -14 21 -16 12 -2 15 1 11 12 -7 19 -38 22 -32 4z"/>
<path d="M9197 303 c-12 -11 -7 -41 7 -46 14 -6 26 12 26 39 0 14 -21 19 -33
7z"/>
<path d="M810 281 c-13 -25 -3 -51 20 -51 49 0 66 30 33 56 -25 19 -41 17 -53
-5z"/>
<path d="M1212 289 c2 -7 10 -15 17 -17 8 -3 12 1 9 9 -2 7 -10 15 -17 17 -8
3 -12 -1 -9 -9z"/>
<path d="M1520 275 c-10 -12 -10 -18 0 -30 7 -8 16 -15 21 -15 11 0 11 31 0
48 -6 10 -10 10 -21 -3z"/>
<path d="M1766 283 c-12 -12 -6 -33 9 -33 8 0 15 6 15 14 0 17 -14 28 -24 19z"/>
<path d="M1860 271 c0 -11 5 -23 10 -26 6 -4 10 5 10 19 0 14 -4 26 -10 26 -5
0 -10 -9 -10 -19z"/>
<path d="M3140 280 c0 -5 5 -10 10 -10 6 0 10 5 10 10 0 6 -4 10 -10 10 -5 0
-10 -4 -10 -10z"/>
<path d="M5030 280 c0 -5 5 -10 11 -10 5 0 7 5 4 10 -3 6 -8 10 -11 10 -2 0
-4 -4 -4 -10z"/>
<path d="M6743 273 c9 -9 19 -14 23 -11 10 10 -6 28 -24 28 -15 0 -15 -1 1
-17z"/>
<path d="M7130 280 c0 -5 4 -10 9 -10 6 0 13 5 16 10 3 6 -1 10 -9 10 -9 0
-16 -4 -16 -10z"/>
<path d="M9257 283 c-12 -11 -7 -41 7 -46 21 -8 50 17 43 37 -6 16 -38 22 -50
9z"/>
<path d="M9505 274 c-23 -23 -15 -49 15 -49 21 0 26 5 28 33 4 36 -15 43 -43
16z"/>
<path d="M8566 264 c-4 -11 -1 -14 11 -12 9 2 18 9 21 16 6 18 -25 15 -32 -4z"/>
<path d="M1400 250 c0 -16 5 -21 23 -18 12 2 22 10 22 18 0 8 -10 16 -22 18
-18 3 -23 -2 -23 -18z"/>
<path d="M7250 254 c0 -15 26 -19 34 -5 3 5 -3 11 -14 14 -13 3 -20 0 -20 -9z"/>
<path d="M1166 251 c-9 -13 4 -41 18 -41 18 0 35 21 29 36 -6 16 -39 19 -47 5z"/>
<path d="M5570 230 c0 -5 7 -10 15 -10 8 0 15 5 15 10 0 6 -7 10 -15 10 -8 0
-15 -4 -15 -10z"/>
<path d="M9373 224 c-7 -20 33 -62 46 -49 5 6 13 22 16 38 7 25 5 27 -24 27
-20 0 -34 -6 -38 -16z"/>
<path d="M875 219 c-4 -6 2 -21 14 -33 12 -12 21 -28 21 -34 0 -14 16 -16 24
-3 8 12 -12 63 -27 73 -17 11 -25 10 -32 -3z"/>
<path d="M2226 211 c-4 -5 -2 -12 3 -15 5 -4 12 -2 15 3 4 5 2 12 -3 15 -5 4
-12 2 -15 -3z"/>
<path d="M2342 209 c2 -6 8 -10 13 -10 5 0 11 4 13 10 2 6 -4 11 -13 11 -9 0
-15 -5 -13 -11z"/>
<path d="M5692 208 c3 -7 12 -14 21 -16 12 -2 15 1 11 12 -7 19 -38 22 -32 4z"/>
<path d="M811 184 c-12 -15 -21 -30 -21 -35 0 -15 31 -39 51 -39 15 0 19 7 19
39 0 54 -22 70 -49 35z"/>
<path d="M7110 190 c0 -5 7 -10 15 -10 8 0 15 5 15 10 0 6 -7 10 -15 10 -8 0
-15 -4 -15 -10z"/>
<path d="M8527 194 c-14 -14 -7 -35 11 -32 9 2 17 10 17 17 0 16 -18 25 -28
15z"/>
<path d="M9530 181 c-18 -35 -12 -51 20 -51 35 0 47 19 30 49 -14 26 -36 27
-50 2z"/>
<path d="M9737 182 c-29 -31 -15 -72 24 -72 30 0 42 73 13 84 -21 8 -19 9 -37
-12z"/>
<path d="M1930 171 c0 -12 6 -21 16 -21 9 0 14 7 12 17 -5 25 -28 28 -28 4z"/>
<path d="M7610 175 c0 -9 5 -15 11 -13 6 2 11 8 11 13 0 5 -5 11 -11 13 -6 2
-11 -4 -11 -13z"/>
<path d="M8914 169 c-16 -17 -16 -22 -4 -29 20 -13 26 -12 40 5 13 15 7 45 -8
45 -5 0 -17 -9 -28 -21z"/>
<path d="M5635 170 c3 -5 8 -10 11 -10 2 0 4 5 4 10 0 6 -5 10 -11 10 -5 0 -7
-4 -4 -10z"/>
<path d="M1590 156 c0 -9 7 -16 16 -16 9 0 14 5 12 12 -6 18 -28 21 -28 4z"/>
<path d="M1672 158 c7 -19 38 -22 38 -4 0 10 -9 16 -21 16 -12 0 -19 -5 -17
-12z"/>
<path d="M7230 161 c0 -12 29 -35 36 -28 11 10 -5 37 -21 37 -8 0 -15 -4 -15
-9z"/>
<path d="M1105 146 c-24 -18 -13 -46 19 -46 31 0 40 14 26 40 -13 24 -20 25
-45 6z"/>
<path d="M1316 151 c-9 -14 5 -42 18 -38 18 6 20 47 2 47 -8 0 -17 -4 -20 -9z"/>
<path d="M7713 148 c2 -7 10 -13 17 -13 7 0 15 6 18 13 2 7 -5 12 -18 12 -13
0 -20 -5 -17 -12z"/>
<path d="M5565 140 c3 -5 13 -10 21 -10 8 0 12 5 9 10 -3 6 -13 10 -21 10 -8
0 -12 -4 -9 -10z"/>
<path d="M6064 136 c-4 -10 -2 -22 4 -28 8 -8 13 -7 18 6 4 10 2 22 -4 28 -8
8 -13 7 -18 -6z"/>
<path d="M9404 136 c-17 -44 22 -71 61 -42 16 12 18 18 9 33 -14 23 -62 30
-70 9z"/>
<path d="M9639 131 c-15 -12 -20 -23 -15 -38 9 -28 37 -38 52 -18 10 14 12 13
17 -5 3 -11 13 -20 24 -20 10 0 24 -9 31 -20 9 -15 21 -19 51 -17 36 2 39 4
35 31 -5 43 -61 75 -79 45 -5 -6 -12 -4 -20 7 -7 10 -19 15 -29 11 -11 -5 -16
-1 -16 12 0 27 -25 33 -51 12z"/>
<path d="M3820 126 c0 -9 5 -16 10 -16 6 0 10 4 10 9 0 6 -4 13 -10 16 -5 3
-10 -1 -10 -9z"/>
<path d="M8235 119 c-9 -26 -2 -33 24 -24 26 8 27 21 2 35 -16 8 -21 6 -26
-11z"/>
<path d="M4140 115 c0 -9 5 -15 11 -13 6 2 11 8 11 13 0 5 -5 11 -11 13 -6 2
-11 -4 -11 -13z"/>
<path d="M8635 110 c-9 -27 -6 -29 28 -23 33 7 34 36 0 41 -15 2 -23 -4 -28
-18z"/>
<path d="M975 110 c-6 -10 29 -50 45 -50 17 0 30 36 18 48 -14 14 -55 16 -63
2z"/>
<path d="M8823 108 c-27 -13 -30 -36 -7 -45 18 -7 44 20 44 44 0 15 -7 15 -37
1z"/>
<path d="M3345 101 c-7 -12 12 -24 25 -16 11 7 4 25 -10 25 -5 0 -11 -4 -15
-9z"/>
<path d="M4255 100 c-3 -5 1 -10 9 -10 9 0 16 5 16 10 0 6 -4 10 -9 10 -6 0
-13 -4 -16 -10z"/>
<path d="M5710 101 c0 -5 5 -13 10 -16 6 -3 10 -2 10 4 0 5 -4 13 -10 16 -5 3
-10 2 -10 -4z"/>
<path d="M6196 102 c-2 -4 -1 -14 5 -22 7 -12 9 -10 9 8 0 23 -5 28 -14 14z"/>
<path d="M6960 100 c0 -5 5 -10 10 -10 6 0 10 5 10 10 0 6 -4 10 -10 10 -5 0
-10 -4 -10 -10z"/>
<path d="M8875 99 c-10 -15 1 -23 20 -15 9 3 13 10 10 16 -8 13 -22 13 -30 -1z"/>
<path d="M8932 90 c-18 -29 -7 -40 31 -33 42 8 43 9 22 33 -23 25 -37 25 -53
0z"/>
<path d="M3224 84 c3 -9 6 -18 6 -20 0 -2 5 -4 10 -4 6 0 10 9 10 20 0 12 -7
20 -16 20 -11 0 -14 -5 -10 -16z"/>
<path d="M7587 84 c-11 -11 3 -24 18 -18 8 4 12 10 9 15 -6 11 -18 12 -27 3z"/>
<path d="M8340 75 c0 -8 7 -15 15 -15 8 0 15 7 15 15 0 8 -7 15 -15 15 -8 0
-15 -7 -15 -15z"/>
<path d="M1606 73 c-12 -12 -6 -33 9 -33 8 0 15 6 15 14 0 17 -14 28 -24 19z"/>
<path d="M1692 66 c1 -10 8 -17 13 -17 15 1 12 24 -3 29 -9 3 -13 -2 -10 -12z"/>
<path d="M1935 71 c-6 -11 9 -23 19 -14 9 9 7 23 -3 23 -6 0 -12 -4 -16 -9z"/>
<path d="M9133 65 c-3 -9 -3 -18 0 -22 10 -10 37 6 37 22 0 20 -29 20 -37 0z"/>
<path d="M1137 63 c-4 -3 -7 -15 -7 -25 0 -13 8 -18 30 -18 35 0 41 23 11 40
-23 12 -26 12 -34 3z"/>
<path d="M1324 55 c-8 -20 4 -35 27 -35 20 0 23 8 13 34 -8 20 -33 21 -40 1z"/>
<path d="M2937 63 c-12 -11 -8 -23 7 -23 8 0 16 7 20 15 5 15 -14 21 -27 8z"/>
<path d="M6130 60 c0 -5 5 -10 10 -10 6 0 10 5 10 10 0 6 -4 10 -10 10 -5 0
-10 -4 -10 -10z"/>
<path d="M7696 61 c-4 -5 3 -15 15 -21 18 -10 20 -9 17 6 -4 20 -23 30 -32 15z"/>
<path d="M2800 53 c0 -5 5 -15 10 -23 7 -11 12 -12 21 -3 6 6 8 16 5 22 -8 12
-36 15 -36 4z"/>
<path d="M8280 50 c0 -5 5 -10 10 -10 6 0 10 5 10 10 0 6 -4 10 -10 10 -5 0
-10 -4 -10 -10z"/>
<path d="M9656 39 c-20 -29 -12 -39 30 -39 27 0 35 4 32 16 -2 9 -13 23 -25
31 -19 13 -23 12 -37 -8z"/>
<path d="M1020 30 c-15 -28 -13 -30 26 -30 27 0 35 4 32 16 -2 9 -13 20 -25
25 -17 6 -25 4 -33 -11z"/>
<path d="M3290 40 c0 -5 7 -10 16 -10 8 0 12 5 9 10 -3 6 -10 10 -16 10 -5 0
-9 -4 -9 -10z"/>
<path d="M3826 41 c-4 -7 -5 -15 -2 -18 9 -9 19 4 14 18 -4 11 -6 11 -12 0z"/>
<path d="M4632 36 c1 -10 8 -17 13 -17 15 1 12 24 -3 29 -9 3 -13 -2 -10 -12z"/>
<path d="M6060 42 c0 -5 7 -15 15 -22 8 -7 15 -8 15 -2 0 5 -7 15 -15 22 -8 7
-15 8 -15 2z"/>
<path d="M8206 34 c-9 -23 -8 -24 14 -24 13 0 20 7 20 20 0 24 -25 27 -34 4z"/>
<path d="M8575 40 c-3 -5 -1 -10 4 -10 6 0 11 5 11 10 0 6 -2 10 -4 10 -3 0
-8 -4 -11 -10z"/>
<path d="M8825 29 c-4 -11 -4 -23 0 -27 9 -9 40 13 43 32 5 24 -35 20 -43 -5z"/>
<path d="M9030 35 c-10 -11 -10 -19 -2 -27 15 -15 44 -2 40 19 -4 23 -22 27
-38 8z"/>
<path d="M2424 29 c-10 -17 13 -36 27 -22 12 12 4 33 -11 33 -5 0 -12 -5 -16
-11z"/>
<path d="M4136 24 c-8 -21 -4 -25 14 -14 11 7 12 12 4 20 -8 8 -13 7 -18 -6z"/>
<path d="M926 21 c-4 -7 -5 -15 -2 -18 9 -9 19 4 14 18 -4 11 -6 11 -12 0z"/>
<path d="M2527 24 c-8 -8 1 -24 14 -24 5 0 9 7 9 15 0 15 -12 20 -23 9z"/>
<path d="M6540 16 c0 -10 9 -16 21 -16 24 0 21 23 -4 28 -10 2 -17 -3 -17 -12z"/>
<path d="M9336 15 c-19 -14 -18 -15 17 -15 38 0 49 13 21 24 -19 7 -15 8 -38
-9z"/>
<path d="M4255 10 c-3 -5 -1 -10 4 -10 6 0 11 5 11 10 0 6 -2 10 -4 10 -3 0
-8 -4 -11 -10z"/>
<path d="M2123 3 c9 -2 23 -2 30 0 6 3 -1 5 -18 5 -16 0 -22 -2 -12 -5z"/>
<path d="M8308 3 c6 -2 18 -2 25 0 6 3 1 5 -13 5 -14 0 -19 -2 -12 -5z"/>
</g>
</svg>
